<svg width="58" height="58" viewBox="0 0 58 58" fill="none" xmlns="http://www.w3.org/2000/svg">
<path d="M42.1445 13.0273V50.2726C42.1445 51.0694 41.828 51.8335 41.2646 52.3969C40.7012 52.9603 39.937 53.2768 39.1403 53.2768H11.0959C10.7014 53.2768 10.3107 53.1991 9.94625 53.0482C9.58177 52.8972 9.2506 52.6759 8.97164 52.3969C8.69268 52.118 8.4714 51.7868 8.32044 51.4223C8.16947 51.0578 8.09178 50.6671 8.0918 50.2726L39.1403 10.0228C39.5348 10.0228 39.9255 10.1005 40.29 10.2515C40.6545 10.4025 40.9857 10.6239 41.2647 10.9029C41.5436 11.1819 41.7649 11.5131 41.9159 11.8776C42.0668 12.2421 42.1445 12.6328 42.1445 13.0273Z" fill="#F5F5F5"/>
<path d="M12.9913 53.2769H11.0959C10.7014 53.2769 10.3107 53.1991 9.94625 53.0482C9.58177 52.8972 9.2506 52.6759 8.97164 52.3969C8.69268 52.118 8.4714 51.7868 8.32044 51.4223C8.16947 51.0578 8.09178 50.6671 8.0918 50.2726L11.5001 45.8547L9.9871 50.2726C9.98709 50.6672 10.0648 51.0578 10.2158 51.4223C10.3667 51.7868 10.588 52.118 10.867 52.397C11.146 52.6759 11.4771 52.8972 11.8416 53.0482C12.2061 53.1992 12.5968 53.2769 12.9913 53.2769Z" fill="#E6E6E6"/>
<path d="M38.9843 9.97385V47.2196C38.9843 48.0163 38.6678 48.7804 38.1044 49.3438C37.5411 49.9072 36.777 50.2237 35.9802 50.2237H7.93586C7.54135 50.2237 7.15069 50.146 6.7862 49.9951C6.42172 49.8441 6.09053 49.6228 5.81156 49.3439C5.53259 49.0649 5.3113 48.7337 5.16033 48.3692C5.00935 48.0048 4.93164 47.6141 4.93164 47.2196L35.9802 6.96974C36.777 6.96974 37.5411 7.28625 38.1044 7.84962C38.6678 8.413 38.9843 9.17711 38.9843 9.97385Z" fill="#BFBFBF"/>
<path d="M10.0479 50.2237H7.93586C7.54135 50.2237 7.15069 50.146 6.7862 49.9951C6.42172 49.8441 6.09053 49.6228 5.81156 49.3439C5.53259 49.0649 5.3113 48.7337 5.16033 48.3692C5.00935 48.0048 4.93164 47.6141 4.93164 47.2196L8.76055 42.2553L7.04354 47.2196C7.04354 47.6141 7.12125 48.0048 7.27224 48.3693C7.42322 48.7338 7.64452 49.0649 7.92351 49.3439C8.20249 49.6229 8.53368 49.8441 8.89818 49.9951C9.26269 50.146 9.65335 50.2237 10.0479 50.2237Z" fill="#8C8C8C"/>
<path d="M32.6541 47.2351H4.60969C3.81292 47.2351 3.04878 46.9186 2.48538 46.3552C1.92198 45.7918 1.60547 45.0277 1.60547 44.2309V11.189L8.79498 3.98104H32.6541C33.0486 3.98104 33.4392 4.05875 33.8037 4.20973C34.1682 4.36071 34.4994 4.582 34.7783 4.86096C35.0573 5.13993 35.2786 5.47112 35.4295 5.83561C35.5805 6.20009 35.6582 6.59075 35.6582 6.98526V44.2309C35.6582 45.0276 35.3417 45.7918 34.7783 46.3551C34.2149 46.9185 33.4508 47.2351 32.6541 47.2351Z" fill="#F5F5F5"/>
<path d="M6.84575 47.2351H4.60969C3.81292 47.2351 3.04878 46.9186 2.48538 46.3552C1.92198 45.7918 1.60547 45.0277 1.60547 44.2309V11.189L8.79498 3.98104L4.27562 11.189V44.665C4.27562 45.3466 4.5464 46.0003 5.02839 46.4823C5.51039 46.9643 6.16411 47.2351 6.84575 47.2351Z" fill="#E6E6E6"/>
<path d="M8.79498 3.98104V9.47326C8.79498 9.92341 8.61616 10.3551 8.29785 10.6734C7.97955 10.9917 7.54783 11.1706 7.09768 11.1706H1.60547L8.79498 3.98104Z" fill="#BFBFBF"/>
<path d="M47.8292 44.3996L46.7077 45.5211L42.4688 41.2821L43.5902 40.1606L47.8292 44.3996Z" fill="#FFDF40"/>
<path d="M46.8688 33.418C46.8688 35.6107 46.2185 37.7542 45.0003 39.5774C43.7821 41.4006 42.0506 42.8216 40.0247 43.6608C37.9989 44.4999 35.7697 44.7194 33.6191 44.2917C31.4685 43.8639 29.493 42.808 27.9425 41.2575C26.392 39.707 25.3361 37.7315 24.9083 35.5809C24.4806 33.4303 24.7001 31.2011 25.5392 29.1753C26.3784 27.1494 27.7994 25.4179 29.6226 24.1997C31.4458 22.9815 33.5893 22.3312 35.782 22.3312C37.238 22.3312 38.6797 22.618 40.0248 23.1751C41.3699 23.7323 42.5921 24.5489 43.6216 25.5784C44.6511 26.6079 45.4677 27.8301 46.0249 29.1752C46.582 30.5204 46.8688 31.962 46.8688 33.418Z" fill="#66CCFF"/>
<path d="M35.6584 44.5034C32.7397 44.4711 29.9515 43.289 27.899 41.2136C25.8465 39.1383 24.6953 36.3372 24.6953 33.4183C24.6953 30.4994 25.8465 27.6983 27.899 25.623C29.9515 23.5476 32.7397 22.3655 35.6584 22.3332V44.5034Z" fill="#4DA6FF"/>
<path d="M27.0137 33.418C27.0137 31.6835 27.528 29.988 28.4916 28.5459C29.4552 27.1038 30.8248 25.9798 32.4272 25.3161C34.0296 24.6523 35.7929 24.4787 37.494 24.817C39.1951 25.1554 40.7577 25.9906 41.9841 27.2171C43.2105 28.4435 44.0457 30.0061 44.3841 31.7072C44.7224 33.4083 44.5487 35.1716 43.885 36.774C43.2212 38.3764 42.0972 39.746 40.6551 40.7095C39.2129 41.6731 37.5174 42.1874 35.783 42.1874C33.458 42.1848 31.229 41.26 29.585 39.616C27.941 37.972 27.0163 35.7429 27.0137 33.418Z" fill="#80EAFF"/>
<path d="M53.0962 53.2901L45.7375 45.9314C45.7006 45.8945 45.6713 45.8508 45.6513 45.8026C45.6314 45.7545 45.6211 45.7029 45.6211 45.6508C45.6211 45.5986 45.6314 45.547 45.6513 45.4989C45.6713 45.4507 45.7006 45.407 45.7375 45.3702L45.8566 45.2509L47.6272 43.4804L47.7464 43.3612C47.7832 43.3243 47.827 43.295 47.8751 43.2751C47.9233 43.2551 47.9749 43.2448 48.027 43.2448C48.0792 43.2448 48.1308 43.2551 48.179 43.2751C48.2271 43.295 48.2709 43.3243 48.3077 43.3612L55.6664 50.72C57.6755 52.729 55.1053 55.2991 53.0962 53.2901Z" fill="#393939"/>
<path d="M33.1137 37.7582L30.958 35.6071C29.5728 34.2236 31.3665 32.4276 32.7517 33.8111L34.2507 35.3064L38.5369 31.1463C39.9904 29.7245 41.7654 31.5391 40.3119 32.9609L35.3615 37.77C35.0606 38.0641 34.6559 38.2278 34.2352 38.2256C33.8144 38.2234 33.4114 38.0555 33.1137 37.7582Z" fill="#FF5959"/>
<path d="M55.9017 53.4975C55.2618 54.1521 54.108 54.3018 53.0962 53.2901L45.7375 45.9314C45.7006 45.8945 45.6713 45.8508 45.6513 45.8026C45.6314 45.7545 45.6211 45.7029 45.6211 45.6508C45.6211 45.5986 45.6314 45.547 45.6513 45.4989C45.6713 45.4507 45.7006 45.407 45.7375 45.3702L45.8566 45.2509L46.7559 44.3518L55.9017 53.4975Z" fill="#343434"/>
<path d="M6.78516 17.5609C6.78516 17.3506 6.8687 17.1489 7.01741 17.0001C7.16612 16.8514 7.36782 16.7679 7.57812 16.7679H29.6852C29.8955 16.7679 30.0972 16.8514 30.2459 17.0001C30.3946 17.1489 30.4782 17.3506 30.4782 17.5609C30.4782 17.7712 30.3946 17.9729 30.2459 18.1216C30.0972 18.2703 29.8955 18.3538 29.6852 18.3538H7.57812C7.36782 18.3538 7.16612 18.2703 7.01741 18.1216C6.8687 17.9729 6.78516 17.7712 6.78516 17.5609ZM7.57812 23.1246H25.7513C25.9616 23.1246 26.1633 23.041 26.312 22.8923C26.4607 22.7436 26.5442 22.5419 26.5442 22.3316C26.5442 22.1213 26.4607 21.9196 26.312 21.7709C26.1633 21.6222 25.9616 21.5386 25.7513 21.5386H7.57812C7.36782 21.5386 7.16612 21.6222 7.01741 21.7709C6.8687 21.9196 6.78516 22.1213 6.78516 22.3316C6.78516 22.5419 6.8687 22.7436 7.01741 22.8923C7.16612 23.041 7.36782 23.1246 7.57812 23.1246ZM7.57812 27.8953H22.5977C22.8081 27.8953 23.0097 27.8117 23.1585 27.663C23.3072 27.5143 23.3907 27.3126 23.3907 27.1023C23.3907 26.892 23.3072 26.6903 23.1585 26.5416C23.0097 26.3929 22.8081 26.3093 22.5977 26.3093H7.57812C7.36782 26.3093 7.16612 26.3929 7.01741 26.5416C6.8687 26.6903 6.78516 26.892 6.78516 27.1023C6.78516 27.3126 6.8687 27.5143 7.01741 27.663C7.16612 27.8117 7.36782 27.8953 7.57812 27.8953ZM7.57812 32.6661H21.5945C21.8048 32.6661 22.0065 32.5826 22.1552 32.4339C22.304 32.2852 22.3875 32.0835 22.3875 31.8732C22.3875 31.6628 22.304 31.4611 22.1552 31.3124C22.0065 31.1637 21.8048 31.0802 21.5945 31.0802H7.57812C7.36782 31.0802 7.16612 31.1637 7.01741 31.3124C6.8687 31.4611 6.78516 31.6628 6.78516 31.8732C6.78516 32.0835 6.8687 32.2852 7.01741 32.4339C7.16612 32.5826 7.36782 32.6661 7.57812 32.6661ZM7.57812 37.4368H22.1446C22.3549 37.4368 22.5566 37.3533 22.7053 37.2046C22.854 37.0559 22.9376 36.8542 22.9376 36.6439C22.9376 36.4336 22.854 36.2319 22.7053 36.0832C22.5566 35.9345 22.3549 35.8509 22.1446 35.8509H7.57812C7.36782 35.8509 7.16612 35.9345 7.01741 36.0832C6.8687 36.2319 6.78516 36.4336 6.78516 36.6439C6.78516 36.8542 6.8687 37.0559 7.01741 37.2046C7.16612 37.3533 7.36782 37.4368 7.57812 37.4368Z" fill="#393939"/>
</svg>
