<svg width="55" height="56" viewBox="0 0 55 56" fill="none" xmlns="http://www.w3.org/2000/svg">
<g clip-path="url(#clip0_2198_718)">
<path d="M54.9997 27.9998C54.9997 27.2033 54.354 26.5575 53.5573 26.5575H51.2878L53.4484 24.3969C54.0117 23.8336 54.0117 22.9203 53.4484 22.3571C52.8851 21.7939 51.9719 21.7938 51.4086 22.3571L47.2081 26.5576H45.0731L47.2337 24.397C47.797 23.8337 47.797 22.9204 47.2337 22.3572C46.6702 21.7939 45.757 21.7939 45.1938 22.3572L40.9933 26.5577H30.982L38.0612 19.4785H44.0015C44.7981 19.4785 45.4438 18.8328 45.4438 18.0362C45.4438 17.2396 44.7981 16.5939 44.0015 16.5939H40.946L42.4557 15.0842H48.396C49.1926 15.0842 49.8383 14.4384 49.8383 13.6418C49.8383 12.8452 49.1926 12.1995 48.396 12.1995H45.3405L46.9453 10.5946C47.5087 10.0313 47.5087 9.11798 46.9453 8.55477C46.382 7.99145 45.4687 7.99145 44.9055 8.55477L43.3006 10.1596V7.10372C43.3006 6.30709 42.6549 5.66138 41.8583 5.66138C41.0617 5.66138 40.416 6.30709 40.416 7.10372V13.044L38.9063 14.5537V11.4983C38.9063 10.7017 38.2605 10.056 37.4639 10.056C36.6673 10.056 36.0216 10.7017 36.0216 11.4983V17.4386L28.9424 24.5178V14.5064L33.1429 10.3059C33.7062 9.74263 33.7062 8.82934 33.1429 8.26613C32.5795 7.70281 31.6663 7.70281 31.1031 8.26613L28.9424 10.4267V8.29159L33.1429 4.09109C33.7062 3.52778 33.7062 2.61448 33.1429 2.05127C32.5795 1.48795 31.6663 1.48795 31.1031 2.05127L28.9424 4.21183V1.94235C28.9422 1.14571 28.2965 0.5 27.4998 0.5C26.7033 0.5 26.0575 1.14571 26.0575 1.94235V4.21183L23.8969 2.05127C23.3336 1.48795 22.4204 1.48795 21.8571 2.05127C21.2938 2.61459 21.2938 3.52788 21.8571 4.09109L26.0576 8.29159V10.4267L23.897 8.26613C23.3337 7.70281 22.4205 7.70281 21.8572 8.26613C21.2939 8.82944 21.2939 9.74274 21.8572 10.3059L26.0577 14.5064V24.5178L18.9785 17.4386V11.4982C18.9785 10.7016 18.3328 10.0559 17.5362 10.0559C16.7396 10.0559 16.0939 10.7016 16.0939 11.4982V14.5537L14.5842 13.044V7.10361C14.5842 6.30698 13.9384 5.66127 13.1418 5.66127C12.3452 5.66127 11.6995 6.30698 11.6995 7.10361V10.1591L10.0944 8.55455C9.53106 7.99124 8.61776 7.99124 8.05455 8.55455C7.49124 9.11787 7.49124 10.0312 8.05455 10.5944L9.65943 12.1992H6.60372C5.80709 12.1992 5.16138 12.845 5.16138 13.6416C5.16138 14.4382 5.80709 15.0839 6.60372 15.0839H12.544L14.0537 16.5936H10.9983C10.2017 16.5936 9.55598 17.2393 9.55598 18.036C9.55598 18.8326 10.2017 19.4783 10.9983 19.4783H16.9386L24.0178 26.5575H14.0064L9.80584 22.357C9.24252 21.7937 8.32934 21.7937 7.76602 22.357C7.2027 22.9203 7.2027 23.8336 7.76602 24.3968L9.92658 26.5574H7.79159L3.59109 22.357C3.02778 21.7937 2.11459 21.7937 1.55127 22.357C0.987953 22.9203 0.987953 23.8336 1.55127 24.3968L3.71183 26.5574H1.44235C0.645709 26.5574 0 27.2032 0 27.9997C0 28.7964 0.645709 29.4421 1.44235 29.4421H3.71194L1.55138 31.6027C0.988061 32.1661 0.988061 33.0794 1.55138 33.6426C1.83304 33.9242 2.20214 34.0651 2.57123 34.0651C2.94033 34.0651 3.30954 33.9242 3.59109 33.6426L7.79159 29.4421H9.92669L7.76613 31.6027C7.20281 32.1661 7.20281 33.0794 7.76613 33.6426C8.04778 33.9242 8.41688 34.0651 8.78598 34.0651C9.15508 34.0651 9.52429 33.9242 9.80584 33.6426L14.0063 29.4421H24.0177L16.9385 36.5212H10.9982C10.2016 36.5212 9.55587 37.167 9.55587 37.9636C9.55587 38.7602 10.2016 39.4059 10.9982 39.4059H14.0537L12.544 40.9156H6.60361C5.80698 40.9156 5.16127 41.5613 5.16127 42.358C5.16127 43.1546 5.80698 43.8003 6.60361 43.8003H9.6591L8.05423 45.4052C7.49091 45.9685 7.49091 46.8817 8.05423 47.445C8.33589 47.7267 8.70499 47.8675 9.07409 47.8675C9.44319 47.8675 9.81239 47.7267 10.0939 47.445L11.6988 45.8401V48.8956C11.6988 49.6923 12.3445 50.338 13.1412 50.338C13.9378 50.338 14.5835 49.6923 14.5835 48.8956V42.9553L16.0932 41.4457V44.5011C16.0932 45.2978 16.7389 45.9435 17.5356 45.9435C18.3322 45.9435 18.9779 45.2978 18.9779 44.5011V38.5609L26.0571 31.4817V41.493L21.8566 45.6935C21.2933 46.2568 21.2933 47.1701 21.8566 47.7333C22.4199 48.2967 23.3332 48.2967 23.8964 47.7333L26.057 45.5728V47.7078L21.8565 51.9083C21.2931 52.4716 21.2931 53.3849 21.8565 53.9481C21.9902 54.0822 22.1492 54.1886 22.3242 54.2611C22.4993 54.3336 22.6869 54.3708 22.8763 54.3706C23.2455 54.3706 23.6146 54.2297 23.8962 53.9481L26.0567 51.7875V54.057C26.0567 54.8536 26.7026 55.4994 27.4991 55.4994C28.2957 55.4994 28.9414 54.8536 28.9414 54.057V51.7875L31.1021 53.9482C31.6654 54.5115 32.5787 54.5115 33.1419 53.9482C33.7051 53.3849 33.7052 52.4717 33.1419 51.9084L28.9414 47.7079V45.5728L31.1021 47.7334C31.3838 48.0151 31.753 48.1559 32.122 48.1559C32.491 48.1559 32.8603 48.0151 33.1418 47.7334C33.7051 47.1701 33.7051 46.2569 33.1418 45.6936L28.9413 41.4931V31.4824L36.0205 38.5616V44.5019C36.0205 45.2985 36.6662 45.9442 37.4628 45.9442C38.2595 45.9442 38.9052 45.2985 38.9052 44.5019V41.4464L40.4149 42.9561V48.8964C40.4149 49.693 41.0606 50.3387 41.8572 50.3387C42.6539 50.3387 43.2996 49.693 43.2996 48.8964V45.8409L44.9044 47.4458C45.0382 47.5799 45.1972 47.6863 45.3722 47.7588C45.5472 47.8313 45.7349 47.8685 45.9243 47.8683C46.2935 47.8683 46.6626 47.7274 46.9442 47.4458C47.5075 46.8825 47.5075 45.9693 46.9442 45.406L45.3393 43.8011H48.3948C49.1914 43.8011 49.8371 43.1554 49.8371 42.3587C49.8371 41.5621 49.1914 40.9164 48.3948 40.9164H42.4545L40.9448 39.4067H44.0003C44.7969 39.4067 45.4426 38.761 45.4426 37.9643C45.4426 37.1677 44.7969 36.522 44.0003 36.522H38.06L30.9808 29.4428H40.9922L45.1927 33.6433C45.4743 33.925 45.8435 34.0658 46.2125 34.0658C46.5815 34.0658 46.9508 33.925 47.2324 33.6433C47.7957 33.08 47.7957 32.1668 47.2324 31.6035L45.0717 29.4428H47.2068L51.4073 33.6433C51.5411 33.7775 51.7 33.8838 51.8751 33.9563C52.0501 34.0288 52.2377 34.066 52.4272 34.0658C52.7963 34.0658 53.1655 33.925 53.447 33.6433C54.0103 33.08 54.0103 32.1668 53.447 31.6035L51.2863 29.4428H53.5558C54.3539 29.4422 54.9997 28.7965 54.9997 27.9998Z" fill="#80C7EA"/>
</g>
<defs>
<clipPath id="clip0_2198_718">
<rect width="55" height="55" fill="white" transform="translate(0 0.5)"/>
</clipPath>
</defs>
</svg>
