<svg width="58" height="58" viewBox="0 0 58 58" fill="none" xmlns="http://www.w3.org/2000/svg">
<path d="M39.6619 14.1929L30.8391 35.4721L27.8811 42.6095L24.5299 50.6852L21.2461 42.926L24.6075 34.7207L27.5707 27.4997L27.8607 26.7849L35.7811 7.46409C35.851 7.29184 35.9706 7.14427 36.1246 7.04009C36.2786 6.93592 36.46 6.87984 36.6459 6.87897C36.7961 6.87897 36.9462 6.91479 37.0912 6.99241C37.7969 7.37011 38.4149 7.89273 38.9045 8.526C39.52 9.31955 39.9142 10.262 40.047 11.2575C40.1797 12.253 40.0463 13.2658 39.6602 14.1929H39.6619Z" fill="#CDD4DF"/>
<path d="M30.841 35.4721L27.883 42.6095L24.6094 34.7207L27.5725 27.4997L30.841 35.4721Z" fill="#ADB9CA"/>
<path d="M7.15625 47.2768C7.15625 52.2546 11.1907 56.295 16.1744 56.295C21.1581 56.295 25.1985 52.2546 25.1985 47.2768C25.1985 42.2939 21.1573 38.2536 16.1744 38.2536C11.1915 38.2536 7.1571 42.2939 7.1571 47.2777L7.15625 47.2768ZM10.1654 47.2768C10.1654 45.6825 10.7988 44.1534 11.9262 43.026C13.0535 41.8986 14.5826 41.2653 16.177 41.2653C17.7713 41.2653 19.3004 41.8986 20.4277 43.026C21.5551 44.1534 22.1885 45.6825 22.1885 47.2768C22.1885 50.5922 19.4949 53.2858 16.1752 53.2858C12.8556 53.2858 10.1654 50.5922 10.1654 47.2768Z" fill="#E5E8EF"/>
<path d="M48.5314 4.26641V23.5924C48.5314 24.271 48.2618 24.9218 47.7819 25.4017C47.3021 25.8816 46.6512 26.1512 45.9726 26.1512H12.0315C11.3528 26.1512 10.702 25.8816 10.2221 25.4017C9.74225 24.9218 9.47266 24.271 9.47266 23.5924V4.26641C9.47266 3.58777 9.74225 2.93692 10.2221 2.45705C10.702 1.97718 11.3528 1.70759 12.0315 1.70759H45.9726C46.6512 1.70759 47.3021 1.97718 47.7819 2.45705C48.2618 2.93692 48.5314 3.58777 48.5314 4.26641Z" fill="#14A142"/>
<path d="M48.5335 4.26385V23.5915C48.5335 25.0074 47.3905 26.1503 45.9746 26.1503H12.0276C10.6202 26.1503 9.46875 25.0074 9.46875 23.5915L45.9746 1.70503C47.3905 1.70503 48.5335 2.8565 48.5335 4.26385Z" fill="#008732"/>
<path d="M12.8848 19.7533V8.10465C13.6765 8.10465 14.4358 7.79013 14.9957 7.23027C15.5555 6.67042 15.8701 5.9111 15.8701 5.11935H42.1355C42.1355 5.9111 42.4501 6.67042 43.0099 7.23027C43.5698 7.79013 44.3291 8.10465 45.1208 8.10465V19.7541C44.3291 19.7541 43.5698 20.0686 43.0099 20.6285C42.4501 21.1883 42.1355 21.9477 42.1355 22.7394H15.8701C15.8701 21.9477 15.5555 21.1883 14.9957 20.6285C14.4358 20.0686 13.6765 19.7533 12.8848 19.7533Z" fill="#4CC66E"/>
<path d="M34.8605 13.9277C34.8605 17.2797 32.1396 20.0006 28.7876 20.0006C25.4355 20.0006 22.7146 17.2797 22.7146 13.9277C22.7146 10.5756 25.4355 7.85473 28.7876 7.85473C32.1396 7.85473 34.8605 10.5756 34.8605 13.9277ZM42.1216 13.9277C42.1019 14.513 41.8555 15.0677 41.4345 15.4748C41.0135 15.8819 40.4508 16.1094 39.8651 16.1094C39.2795 16.1094 38.7168 15.8819 38.2958 15.4748C37.8748 15.0677 37.6284 14.513 37.6087 13.9277C37.6314 13.3445 37.879 12.7928 38.2996 12.3882C38.7202 11.9837 39.2811 11.7577 39.8647 11.7577C40.4483 11.7577 41.0092 11.9837 41.4298 12.3882C41.8504 12.7928 42.0989 13.3445 42.1216 13.9277ZM20.3929 13.9277C20.3702 14.5108 20.1226 15.0625 19.702 15.4671C19.2814 15.8717 18.7205 16.0977 18.1369 16.0977C17.5533 16.0977 16.9924 15.8717 16.5718 15.4671C16.1512 15.0625 15.9035 14.5108 15.8809 13.9277C15.9035 13.3445 16.1512 12.7928 16.5718 12.3882C16.9924 11.9837 17.5533 11.7577 18.1369 11.7577C18.7205 11.7577 19.2814 11.9837 19.702 12.3882C20.1226 12.7928 20.3702 13.3445 20.3929 13.9277Z" fill="#14A142"/>
<path d="M31.0145 15.2668C31.0145 16.1453 30.3919 16.8959 29.5389 17.1518V17.493C29.5389 17.6626 29.4715 17.8253 29.3516 17.9453C29.2316 18.0653 29.0689 18.1327 28.8992 18.1327C28.7296 18.1327 28.5668 18.0653 28.4469 17.9453C28.3269 17.8253 28.2595 17.6626 28.2595 17.493V17.1518C27.398 16.8959 26.7754 16.1453 26.7754 15.2668C26.7754 14.9086 27.0654 14.6271 27.4151 14.6271C27.7733 14.6271 28.0548 14.9086 28.0548 15.2668C28.0548 15.6506 28.4386 15.9577 28.8992 15.9577C29.3598 15.9577 29.7351 15.6506 29.7351 15.2668C29.7351 14.883 29.3598 14.5674 28.8992 14.5674C27.7307 14.5674 26.7754 13.6803 26.7754 12.5886C26.7754 11.71 27.398 10.9594 28.2595 10.7036V10.3624C28.2595 10.1927 28.3269 10.03 28.4469 9.91004C28.5668 9.79007 28.7296 9.72268 28.8992 9.72268C29.0689 9.72268 29.2316 9.79007 29.3516 9.91004C29.4715 10.03 29.5389 10.1927 29.5389 10.3624V10.7036C30.3919 10.9594 31.0145 11.71 31.0145 12.5886C31.0145 12.9468 30.733 13.2283 30.3748 13.2283C30.2051 13.2283 30.0424 13.1609 29.9225 13.0409C29.8025 12.9209 29.7351 12.7582 29.7351 12.5886C29.7351 12.2047 29.3598 11.8977 28.8992 11.8977C28.4386 11.8977 28.0548 12.2047 28.0548 12.5886C28.0548 12.9724 28.4386 13.288 28.8992 13.288C30.0677 13.288 31.0145 14.175 31.0145 15.2668ZM41.8281 38.2536C36.8452 38.2536 32.804 42.2939 32.804 47.2777C32.804 52.2546 36.8452 56.295 41.8281 56.295C46.811 56.295 50.8454 52.2546 50.8454 47.2768C50.8454 42.2939 46.8118 38.2536 41.8281 38.2536ZM41.8281 53.2858C38.5076 53.2858 35.8149 50.5922 35.8149 47.2768C35.8149 45.6826 36.4482 44.1536 37.5755 43.0263C38.7028 41.899 40.2317 41.2657 41.826 41.2657C43.4202 41.2657 44.9492 41.899 46.0765 43.0263C47.2038 44.1536 47.8371 45.6826 47.8371 47.2768C47.8368 48.8704 47.2037 50.3987 46.0768 51.5256C44.95 52.6524 43.4217 53.2856 41.8281 53.2858Z" fill="#E5E8EF"/>
<path d="M36.7553 42.926L33.4715 50.6852L18.3403 14.1929C17.9545 13.2657 17.8213 12.2527 17.9544 11.2573C18.0874 10.2618 18.4819 9.31939 19.0977 8.526C19.5871 7.89279 20.2047 7.37017 20.9102 6.99241C21.0552 6.91565 21.2053 6.87897 21.3555 6.87897C21.5415 6.87967 21.7232 6.93567 21.8773 7.03985C22.0315 7.14404 22.1512 7.29171 22.2212 7.46409L30.1408 26.7849L36.7553 42.926Z" fill="#E5E8EF"/>
<path d="M28.7871 23.484L24.5607 21.6502L19.0977 8.526C19.587 7.89279 20.2047 7.37017 20.9102 6.99241C21.0552 6.91565 21.2053 6.87897 21.3554 6.87897C21.5415 6.87967 21.7231 6.93567 21.8773 7.03985C22.0314 7.14404 22.1511 7.29171 22.2211 7.46409L28.7871 23.484Z" fill="#CDD4DF"/>
<path d="M30.1806 31.053C30.1806 31.8292 29.558 32.451 28.7895 32.451C28.6005 32.4603 28.4117 32.4312 28.2343 32.3653C28.057 32.2995 27.8949 32.1983 27.7579 32.0679C27.6208 31.9374 27.5118 31.7805 27.4372 31.6067C27.3627 31.4328 27.3242 31.2456 27.3242 31.0564C27.3242 30.8673 27.3627 30.6801 27.4372 30.5062C27.5118 30.3323 27.6208 30.1755 27.7579 30.045C27.8949 29.9146 28.057 29.8134 28.2343 29.7475C28.4117 29.6817 28.6005 29.6525 28.7895 29.6619C29.5588 29.6619 30.1806 30.2837 30.1806 31.0522V31.053Z" fill="#435E88"/>
<path d="M28.7873 30.6317C28.7873 30.7441 28.7426 30.8519 28.6631 30.9314C28.5836 31.0109 28.4758 31.0556 28.3634 31.0556C28.2509 31.0556 28.1431 31.0109 28.0636 30.9314C27.9841 30.8519 27.9395 30.7441 27.9395 30.6317C27.9443 30.5226 27.9911 30.4197 28.07 30.3443C28.1489 30.2689 28.2538 30.2268 28.3629 30.2268C28.4721 30.2268 28.577 30.2689 28.6559 30.3443C28.7348 30.4197 28.7824 30.5226 28.7873 30.6317Z" fill="#5E7599"/>
</svg>
