<svg width="72" height="58" viewBox="0 0 72 58" fill="none" xmlns="http://www.w3.org/2000/svg">
<g clip-path="url(#clip0_2198_1001)">
<path d="M14.4237 33.3302C14.5854 34.3454 14.7471 35.3247 14.8999 36.3039C15.0796 37.4898 15.2413 38.6757 15.412 39.8975C15.5827 41.1193 15.8252 42.404 15.969 43.6617C16.0901 44.2301 16.3633 44.7549 16.7595 45.18L19.5715 49.1688L21.3683 46.5994C21.7456 46.0604 22.096 45.4854 22.5092 44.9734C22.9447 44.376 23.1947 43.6636 23.228 42.925C23.3627 41.802 23.5424 40.688 23.7041 39.5651L24.297 35.5493C24.4048 34.8216 24.5216 34.1029 24.6474 33.2943C25.1685 33.5548 25.6356 33.7615 26.0758 34.013L34.0446 38.5858C34.6725 38.9707 35.2169 39.4774 35.6459 40.0761C36.0748 40.6747 36.3796 41.3532 36.5421 42.0716C36.9733 43.5629 37.3416 45.0812 37.701 46.5635C37.9346 47.5517 38.0783 48.5489 38.2939 49.5372C38.3838 49.9774 38.2131 50.0672 37.8088 50.0672H1.32523C0.929936 50.0672 0.687374 50.0223 0.795181 49.5282C1.20844 47.5697 1.54085 45.5932 2.03496 43.6527C2.37125 42.4586 2.8163 41.2978 3.36456 40.1849C3.92612 39.2574 4.76084 38.5262 5.75428 38.0917C8.53928 36.4836 11.3692 34.9383 14.1902 33.3752C14.2351 33.3392 14.298 33.3482 14.4237 33.3302Z" fill="white"/>
<path d="M20.5876 13.8082L20.0395 13.8801V13.934L21.5129 14.1317C23.9386 14.527 25.8611 15.7218 26.6427 18.2283C27.0461 19.7423 27.1378 21.3225 26.9122 22.873C26.8874 23.0041 26.894 23.1392 26.9315 23.2672C26.969 23.3953 27.0363 23.5126 27.1278 23.6097C27.2824 23.8554 27.3837 24.1308 27.4252 24.4181C27.4667 24.7054 27.4474 24.9982 27.3687 25.2776C27.29 25.557 27.1535 25.8168 26.9681 26.0402C26.7827 26.2635 26.5525 26.4455 26.2923 26.5744C26.1353 26.659 26.0164 26.8004 25.9599 26.9696C25.6006 27.7782 25.2682 28.6047 24.9178 29.4133C24.3375 30.4664 23.4244 31.2973 22.3215 31.776C21.8559 32.0206 21.3758 32.2366 20.884 32.4229C19.2579 33.1146 17.8744 32.4229 16.5179 31.6413C15.6517 31.2298 14.922 30.578 14.4156 29.7636C14.0024 28.9641 13.688 28.1106 13.3555 27.2751C13.2118 26.9247 13.1489 26.6103 12.6728 26.4935C12.1966 26.3767 11.6396 25.2807 11.7744 24.4811C11.8596 24.1582 11.9708 23.8428 12.1068 23.5378C12.171 23.3374 12.2043 23.1284 12.2056 22.9179C12.1247 21.741 11.99 20.5551 11.9361 19.3783C11.9551 18.5345 12.2309 17.7165 12.7267 17.0335C13.2208 16.2339 13.7508 15.4433 14.7211 15.3175C15.6913 15.1918 16.5179 14.4192 17.4612 14.0239C18.4468 13.592 19.5519 13.5158 20.5876 13.8082Z" fill="white"/>
<path d="M41.5551 33.0338C42.175 33.0338 42.8039 33.0338 43.4327 33.0338C45.1066 32.9294 46.7838 33.1773 48.3559 33.7615C50.1247 34.3377 51.9946 34.5366 53.8451 34.3454C56.8851 34.132 59.796 33.0326 62.2181 31.1831C64.6302 29.3679 66.475 26.9029 67.5365 24.0768C68.4974 21.5622 68.7914 18.8418 68.39 16.18C67.9907 13.2957 66.7786 10.5847 64.8953 8.364C63.6301 6.77081 62.0526 5.45313 60.2596 4.49194C57.5064 3.0236 54.3818 2.39867 51.2757 2.69516C48.5818 2.91177 45.9894 3.82033 43.7497 5.33288C41.51 6.84543 39.6988 8.9107 38.4916 11.3287C38.249 11.7779 38.0694 12.2271 37.8358 12.7122C37.8018 12.7811 37.7539 12.8422 37.6951 12.8916C37.6364 12.9411 37.5681 12.9779 37.4944 12.9997C36.6859 12.9997 35.8863 12.9997 35.0508 12.9997C35.9861 10.0077 37.6674 7.30304 39.9365 5.14026C42.2057 2.97749 44.9879 1.4278 48.0212 0.637091C51.0546 -0.153614 54.2393 -0.159316 57.2755 0.620532C60.3117 1.40038 63.0994 2.94011 65.3762 5.09475C67.6531 7.2494 69.3441 9.94806 70.2901 12.9366C71.2361 15.9252 71.4059 19.1054 70.7836 22.1777C70.1612 25.2501 68.7672 28.1135 66.7328 30.4983C64.6983 32.8832 62.0904 34.711 59.1545 35.8098C54.8785 37.4477 50.1409 37.4059 45.8943 35.693C44.3036 35.0975 42.82 34.2479 41.5012 33.1775L41.5551 33.0338Z" fill="#4CC66E"/>
<path d="M45.3457 51.8281V52.8432C45.3624 52.544 45.3624 52.2441 45.3457 51.9449C45.3549 51.9065 45.3549 51.8665 45.3457 51.8281Z" fill="white"/>
<path d="M45.3461 38.9631C45.3461 38.3612 45.2473 37.9749 44.6005 37.7862C43.9636 37.5536 43.3398 37.2867 42.7318 36.9867V52.3671H13.615C13.4533 52.3671 13.3006 52.3671 13.1478 52.3671C12.8604 52.3671 12.6987 52.5288 12.7615 52.8343C12.8412 53.4258 12.9735 54.0091 13.1568 54.5771C13.5442 55.6029 14.2428 56.4818 15.1546 57.0907C16.0664 57.6996 17.1458 58.0082 18.2417 57.973H39.803C40.8204 58.0064 41.8265 57.751 42.7048 57.2364C43.471 56.7985 44.1145 56.1748 44.5761 55.4227C45.0377 54.6706 45.3025 53.8144 45.3461 52.9331C45.3505 52.9003 45.3505 52.8671 45.3461 52.8343V49.8606C45.3556 49.75 45.3556 49.6388 45.3461 49.5282C45.3461 46.0155 45.3461 42.4848 45.3461 38.9631ZM31.7355 56.3829C30.8371 56.3829 29.9387 56.3829 29.0403 56.3829H25.7971C25.1413 56.3829 24.8988 56.0864 24.8449 55.4306C24.8449 55.224 24.8449 55.0174 24.8449 54.8197C24.837 54.7076 24.8531 54.595 24.8922 54.4896C24.9313 54.3842 24.9924 54.2883 25.0715 54.2084C25.1506 54.1285 25.2458 54.0663 25.3508 54.0261C25.4558 53.9859 25.5681 53.9686 25.6804 53.9752C27.9263 53.9752 30.1723 53.9752 32.4273 53.9752C32.5305 53.9634 32.6351 53.9742 32.7338 54.0067C32.8325 54.0392 32.923 54.0928 32.999 54.1637C33.075 54.2346 33.1347 54.3211 33.1741 54.4173C33.2134 54.5135 33.2314 54.6171 33.2268 54.7209C33.2807 56.1583 33.2628 56.4278 31.7535 56.3829H31.7355Z" fill="#008732"/>
<path d="M12.7351 13.5567C12.807 11.8318 12.5015 10.1967 13.0585 8.6425C13.319 7.7466 13.8305 6.94398 14.5326 6.32948C15.2346 5.71498 16.0979 5.31427 17.0204 5.17472C18.4165 5.02335 19.8212 4.96632 21.2249 5.00402C26.1121 5.00402 30.9904 5.00402 35.8776 5.00402H36.5245C35.8686 5.99225 35.2128 6.92658 34.6199 7.89684C34.1956 8.63611 33.8117 9.39788 33.4699 10.1788C33.4158 10.3216 33.3134 10.4411 33.1806 10.5165C33.0477 10.592 32.8927 10.6187 32.7422 10.592H16.131C15.3854 10.592 15.3854 10.592 15.3854 11.3467C15.3854 12.5775 15.3854 12.5775 14.1636 12.9188C13.9362 12.9938 13.7141 13.0838 13.4987 13.1883L12.7351 13.5567Z" fill="#008732"/>
<path d="M44.9053 30.5632H42.3449L43.0456 26.9696H38.7873C38.1854 26.9696 38.2123 26.9247 38.2483 26.3048C38.4369 25.108 38.9672 23.9912 39.7755 23.0886C41.3836 20.7708 42.9918 18.4619 44.5729 16.1351C44.6557 15.9726 44.786 15.8391 44.9465 15.7525C45.107 15.6658 45.29 15.6301 45.4713 15.6499C46.181 15.6499 46.9087 15.6499 47.7352 15.6499L46.0193 24.6338H47.5196C47.4028 25.3166 47.286 25.9275 47.1782 26.5474C47.1243 26.8708 46.9087 26.9337 46.6212 26.9337C45.5971 26.9337 45.5971 26.9337 45.3904 27.9579C45.2557 28.8293 45.085 29.6648 44.9053 30.5632ZM43.4499 24.6338L44.6088 19.2435L41.1411 24.6338H43.4499Z" fill="white"/>
<path d="M31.9685 28.0028H35.1758C36.2808 28.0028 36.3347 28.0567 36.155 29.1258C36.1101 29.5166 36.0381 29.9039 35.9394 30.2847C35.9009 30.3648 35.8444 30.4349 35.7742 30.4894C35.7041 30.544 35.6222 30.5815 35.5351 30.5991C34.9692 30.5991 34.4032 30.5991 33.8372 30.5991H27.9258C27.9681 29.4152 28.4298 28.2848 29.2285 27.4099C30.6595 25.9237 32.009 24.3612 33.2712 22.7293C33.7419 22.0057 34.1421 21.2385 34.4661 20.4384C34.4893 20.371 34.5073 20.3019 34.52 20.2317C34.8793 18.5068 33.8282 17.5366 32.1303 18.0217C31.7529 18.1295 31.3936 18.2732 30.9084 18.435C30.8276 17.7522 30.7467 17.0604 30.6838 16.3687C30.6838 16.2878 30.8366 16.1441 30.9444 16.0991C32.3004 15.4142 33.8617 15.2542 35.3285 15.6499C35.9359 15.8556 36.4676 16.2385 36.8552 16.7494C37.2427 17.2602 37.4682 17.8755 37.5026 18.5158C37.5773 20.5435 36.8437 22.5179 35.4633 24.005C34.4032 25.3166 33.2263 26.5294 32.0943 27.7782L31.9685 28.0028Z" fill="white"/>
<path d="M53.2963 12.802C53.2963 13.7903 53.2963 14.7695 53.2963 15.7488C53.3085 15.8563 53.3457 15.9594 53.405 16.0499C53.4643 16.1404 53.544 16.2157 53.6377 16.2698C54.1727 16.5072 54.5991 16.9368 54.8325 17.4737C54.8739 17.602 54.9604 17.711 55.0761 17.7804C55.1917 17.8498 55.3287 17.8749 55.4614 17.851C57.1414 17.851 58.8304 17.851 60.5103 17.851C60.8517 17.851 61.1212 17.9678 61.1841 18.2732C61.2161 18.5158 61.1586 18.7617 61.0224 18.965C60.8659 19.0846 60.6708 19.1421 60.4744 19.1267C58.8124 19.1267 57.1414 19.1267 55.4704 19.1267C55.3304 19.1118 55.1896 19.1457 55.0718 19.2226C54.9539 19.2996 54.8662 19.4148 54.8235 19.5489C54.6085 20.0189 54.2501 20.4086 53.7998 20.662C53.3494 20.9154 52.8303 21.0196 52.317 20.9594C51.7814 20.866 51.2887 20.6067 50.9083 20.2183C50.5279 19.8298 50.279 19.3317 50.1968 18.7943C50.1526 18.288 50.2662 17.7805 50.522 17.3414C50.7777 16.9023 51.1631 16.5531 51.6253 16.3417C51.7532 16.3008 51.8627 16.2164 51.9349 16.1032C52.0071 15.99 52.0374 15.855 52.0206 15.7218C52.0206 13.7993 52.0206 11.8767 52.0206 9.95415C52.0206 9.39715 52.2272 9.1456 52.6584 9.15459C53.0897 9.16357 53.2873 9.40613 53.2963 9.96313V12.802ZM52.6584 19.5939C52.8774 19.5956 53.0919 19.5324 53.2748 19.412C53.4577 19.2917 53.6007 19.1197 53.6857 18.918C53.7707 18.7162 53.7939 18.4938 53.7523 18.2788C53.7107 18.0639 53.6061 17.8662 53.4519 17.7107C53.2978 17.5553 53.1009 17.4491 52.8863 17.4058C52.6717 17.3624 52.4491 17.3837 52.2466 17.4671C52.0442 17.5505 51.8711 17.6921 51.7493 17.874C51.6274 18.0559 51.5624 18.2699 51.5624 18.4889C51.5587 18.6342 51.5845 18.7788 51.6382 18.9139C51.6918 19.049 51.7723 19.1719 51.8747 19.2751C51.9771 19.3784 52.0993 19.4598 52.234 19.5146C52.3687 19.5694 52.5131 19.5963 52.6584 19.5939Z" fill="#4CC66E"/>
<path d="M19.5905 47.1115C19.1233 46.4647 18.6921 45.9077 18.3058 45.3147C18.3058 45.3147 18.3058 45.2429 18.3058 45.2249C17.3175 44.3714 17.4613 43.3652 17.8386 42.2692C18.2159 41.1732 18.3776 40.2209 18.6741 39.2057C18.7287 39.0544 18.7416 38.8912 18.7116 38.7332C18.6816 38.5751 18.6097 38.4281 18.5034 38.3073C18.2698 37.9839 18.0722 37.6425 17.8296 37.2562L19.6264 35.5313L21.2615 37.382C21.1128 37.6849 20.9321 37.9711 20.7224 38.2354C20.5812 38.3964 20.4885 38.5941 20.4551 38.8056C20.4217 39.0171 20.449 39.2337 20.5338 39.4303C20.9021 40.8048 21.2974 42.1255 21.6478 43.5359C21.7054 43.7914 21.6602 44.0592 21.522 44.2816C20.9201 45.2159 20.2822 46.1053 19.5905 47.1115Z" fill="white"/>
<path d="M64.5 26.1431C63.9239 25.7883 63.3661 25.4045 62.8289 24.9932C62.7741 24.8828 62.7494 24.7598 62.7573 24.6368C62.7652 24.5137 62.8054 24.395 62.8739 24.2924C62.9852 24.2044 63.1145 24.1419 63.2527 24.1093C63.3908 24.0767 63.5345 24.0748 63.6734 24.1038C64.1215 24.2701 64.5356 24.5167 64.8952 24.8315C64.9846 24.9244 65.0507 25.0371 65.0882 25.1605C65.1256 25.2838 65.1334 25.4143 65.1109 25.5412C65.1109 25.7478 64.7695 25.8916 64.5 26.1431Z" fill="#4CC66E"/>
<path d="M63.3151 13.0806C63.0905 12.8649 62.7941 12.7122 62.7671 12.5146C62.7497 12.3793 62.7633 12.2419 62.8069 12.1127C62.8505 11.9835 62.9229 11.8659 63.0187 11.7689C63.365 11.4934 63.7454 11.2639 64.1506 11.0861C64.2326 11.0397 64.3232 11.0106 64.4168 11.0004C64.5104 10.9903 64.6052 10.9994 64.6952 11.0272C64.7852 11.0549 64.8686 11.1007 64.9402 11.1619C65.0119 11.223 65.0703 11.2981 65.1119 11.3826C65.3095 11.7959 65.1119 12.0744 64.7705 12.281C64.4291 12.4876 63.8542 12.7841 63.3151 13.0806Z" fill="#4CC66E"/>
<path d="M58.0684 29.1348C58.284 28.9191 58.4367 28.6227 58.6254 28.5867C58.7617 28.5746 58.899 28.5907 59.0288 28.634C59.1587 28.6773 59.2782 28.7468 59.38 28.8383C59.6654 29.1792 59.893 29.5647 60.0538 29.9792C60.1975 30.3206 60.2425 30.7339 59.7753 30.9405C59.3081 31.1472 59.0566 30.9405 58.8769 30.5632L58.0684 29.1348Z" fill="#4CC66E"/>
<path d="M41.9408 13.0985C41.3299 12.7122 40.7729 12.4157 40.2878 12.0384C40.2261 11.9896 40.1762 11.9275 40.1419 11.8567C40.1077 11.7859 40.0898 11.7083 40.0898 11.6296C40.0898 11.551 40.1077 11.4733 40.1419 11.4026C40.1762 11.3318 40.2261 11.2697 40.2878 11.2209C40.4132 11.145 40.5528 11.0955 40.698 11.0755C40.8432 11.0554 40.9909 11.0651 41.1323 11.1041C41.5524 11.2489 41.94 11.4748 42.2732 11.7689C42.369 11.8659 42.4414 11.9835 42.485 12.1127C42.5285 12.2419 42.5421 12.3793 42.5247 12.5145C42.5158 12.7212 42.2013 12.8649 41.9408 13.0985Z" fill="#4CC66E"/>
<path d="M47.2508 7.86091C47.0352 8.07652 46.8825 8.37298 46.6848 8.39994C46.5498 8.41299 46.4136 8.39733 46.2851 8.35397C46.1566 8.31062 46.0387 8.24055 45.9392 8.14839C45.6537 7.80743 45.4261 7.42202 45.2654 7.00744C45.1306 6.68402 45.0587 6.29772 45.499 6.10906C45.5796 6.05906 45.6703 6.02742 45.7645 6.01639C45.8588 6.00535 45.9543 6.01518 46.0443 6.04519C46.1343 6.0752 46.2166 6.12464 46.2854 6.19002C46.3542 6.25539 46.4077 6.3351 46.4423 6.42348C46.7028 6.84573 46.9453 7.30391 47.2508 7.86091Z" fill="#4CC66E"/>
<path d="M60.1423 6.65707C60.1293 6.77663 60.1021 6.89424 60.0615 7.00744C59.8638 7.35781 59.6662 7.71716 59.4506 8.05855C59.4158 8.14135 59.3644 8.21612 59.2995 8.27824C59.2346 8.34036 59.1577 8.38849 59.0735 8.41966C58.9893 8.45082 58.8995 8.46436 58.8098 8.45942C58.7202 8.45449 58.6325 8.43118 58.5522 8.39095C58.3866 8.30155 58.2634 8.15007 58.2094 7.96982C58.1555 7.78956 58.1754 7.59529 58.2647 7.42968C58.4547 7.02902 58.6866 6.64958 58.9564 6.2977C59.0414 6.21627 59.1438 6.15533 59.2559 6.11952C59.368 6.08371 59.4868 6.07398 59.6033 6.09108C59.8279 6.14498 60.0165 6.37856 60.2232 6.54027L60.1423 6.65707Z" fill="#4CC66E"/>
<path d="M65.6771 19.1267H65.0033C64.9174 19.1394 64.8297 19.1315 64.7474 19.1037C64.6651 19.0758 64.5905 19.0288 64.53 18.9665C64.4695 18.9042 64.4246 18.8284 64.3991 18.7454C64.3736 18.6623 64.3683 18.5744 64.3834 18.4888C64.3734 18.4026 64.3829 18.3153 64.4114 18.2333C64.4399 18.1513 64.4866 18.0769 64.5479 18.0155C64.6093 17.9541 64.6838 17.9075 64.7658 17.879C64.8477 17.8505 64.9351 17.8409 65.0213 17.851H66.3599C66.4466 17.8424 66.5341 17.8533 66.616 17.8829C66.6979 17.9125 66.7721 17.9601 66.8333 18.0221C66.8945 18.0841 66.941 18.159 66.9694 18.2413C66.9979 18.3236 67.0076 18.4113 66.9977 18.4978C67.0084 18.5846 66.9989 18.6726 66.9699 18.755C66.9409 18.8375 66.8932 18.912 66.8306 18.973C66.7679 19.0339 66.692 19.0795 66.6088 19.1061C66.5255 19.1328 66.4373 19.1398 66.3509 19.1267H65.6771Z" fill="#4CC66E"/>
<path d="M53.2975 5.51611C53.2975 5.72274 53.2975 5.92937 53.2975 6.136C53.3098 6.22224 53.3017 6.31016 53.2738 6.3927C53.2459 6.47524 53.1991 6.5501 53.1371 6.61126C53.075 6.67241 52.9995 6.71818 52.9166 6.74486C52.8337 6.77154 52.7457 6.77839 52.6596 6.76487C52.2464 6.76487 52.0128 6.57621 52.0217 6.14498V4.75247C52.0402 4.59749 52.1149 4.45466 52.2316 4.35104C52.3484 4.24742 52.499 4.19019 52.6551 4.19019C52.8112 4.19019 52.9619 4.24742 53.0786 4.35104C53.1953 4.45466 53.27 4.59749 53.2885 4.75247C53.2975 5.00402 53.2885 5.26456 53.2975 5.51611Z" fill="#4CC66E"/>
<path d="M53.2882 31.5424C53.2882 31.785 53.2882 32.0276 53.2882 32.2612C53.2697 32.4161 53.1951 32.559 53.0783 32.6626C52.9616 32.7662 52.8109 32.8234 52.6549 32.8234C52.4988 32.8234 52.3481 32.7662 52.2314 32.6626C52.1147 32.559 52.04 32.4161 52.0215 32.2612C52.0215 31.7491 52.0215 31.237 52.0215 30.7249C52.0215 30.2128 52.309 30.1769 52.6863 30.1859C52.7635 30.1795 52.8412 30.1895 52.9142 30.2153C52.9872 30.2411 53.054 30.2821 53.11 30.3356C53.166 30.3891 53.21 30.4538 53.2392 30.5256C53.2684 30.5973 53.282 30.6744 53.2792 30.7519C53.3062 31.0304 53.2882 31.2909 53.2882 31.5424Z" fill="#4CC66E"/>
<path d="M45.3457 52.8432V52.9331C45.3494 52.9033 45.3494 52.8731 45.3457 52.8432Z" fill="white"/>
</g>
<defs>
<clipPath id="clip0_2198_1001">
<rect width="70.3708" height="58" fill="white" transform="translate(0.777344)"/>
</clipPath>
</defs>
</svg>
