<svg width="58" height="58" viewBox="0 0 58 58" fill="none" xmlns="http://www.w3.org/2000/svg">
<path d="M39.6619 14.1929L30.8391 35.4721L27.8811 42.6095L24.5299 50.6851L21.2461 42.9259L24.6075 34.7206L27.5707 27.4996L27.8607 26.7848L35.7811 7.46402C35.851 7.29178 35.9706 7.1442 36.1246 7.04003C36.2786 6.93585 36.46 6.87977 36.6459 6.87891C36.7961 6.87891 36.9462 6.91473 37.0912 6.99235C37.7969 7.37005 38.4149 7.89267 38.9045 8.52594C39.52 9.31948 39.9142 10.262 40.047 11.2574C40.1797 12.2529 40.0463 13.2658 39.6602 14.1929H39.6619Z" fill="#CDD4DF"/>
<path d="M30.84 35.472L27.882 42.6094L24.6084 34.7205L27.5715 27.4995L30.84 35.472Z" fill="#ADB9CA"/>
<path d="M7.15527 47.2767C7.15527 52.2545 11.1897 56.2948 16.1734 56.2948C21.1572 56.2948 25.1975 52.2545 25.1975 47.2767C25.1975 42.2938 21.1563 38.2534 16.1734 38.2534C11.1905 38.2534 7.15613 42.2938 7.15613 47.2775L7.15527 47.2767ZM10.1644 47.2767C10.1644 45.6823 10.7978 44.1533 11.9252 43.0259C13.0526 41.8985 14.5816 41.2652 16.176 41.2652C17.7703 41.2652 19.2994 41.8985 20.4268 43.0259C21.5542 44.1533 22.1875 45.6823 22.1875 47.2767C22.1875 50.5921 19.4939 53.2857 16.1743 53.2857C12.8546 53.2857 10.1644 50.5921 10.1644 47.2767Z" fill="#E5E8EF"/>
<path d="M48.5304 4.26634V23.5923C48.5304 24.2709 48.2608 24.9218 47.781 25.4016C47.3011 25.8815 46.6502 26.1511 45.9716 26.1511H12.0305C11.3519 26.1511 10.701 25.8815 10.2211 25.4016C9.74127 24.9218 9.47168 24.2709 9.47168 23.5923V4.26634C9.47168 3.5877 9.74127 2.93685 10.2211 2.45698C10.701 1.97711 11.3519 1.70752 12.0305 1.70752H45.9716C46.6502 1.70752 47.3011 1.97711 47.781 2.45698C48.2608 2.93685 48.5304 3.5877 48.5304 4.26634Z" fill="#14A142"/>
<path d="M48.5325 4.2639V23.5915C48.5325 25.0074 47.3895 26.1504 45.9737 26.1504H12.0266C10.6192 26.1504 9.46777 25.0074 9.46777 23.5915L45.9737 1.70508C47.3895 1.70508 48.5325 2.85655 48.5325 4.2639Z" fill="#008732"/>
<path d="M12.8838 19.7535V8.10492C13.6755 8.10492 14.4349 7.7904 14.9947 7.23055C15.5546 6.6707 15.8691 5.91138 15.8691 5.11963H42.1346C42.1346 5.91138 42.4491 6.6707 43.0089 7.23055C43.5688 7.7904 44.3281 8.10492 45.1198 8.10492V19.7544C44.3281 19.7544 43.5688 20.0689 43.0089 20.6288C42.4491 21.1886 42.1346 21.9479 42.1346 22.7397H15.8691C15.8691 21.9479 15.5546 21.1886 14.9947 20.6288C14.4349 20.0689 13.6755 19.7535 12.8838 19.7535Z" fill="#4CC66E"/>
<path d="M34.8595 13.9279C34.8595 17.28 32.1386 20.0009 28.7866 20.0009C25.4345 20.0009 22.7136 17.28 22.7136 13.9279C22.7136 10.5759 25.4345 7.85498 28.7866 7.85498C32.1386 7.85498 34.8595 10.5759 34.8595 13.9279ZM42.1206 13.9279C42.1009 14.5132 41.8545 15.068 41.4335 15.475C41.0125 15.8821 40.4498 16.1097 39.8642 16.1097C39.2785 16.1097 38.7158 15.8821 38.2948 15.475C37.8738 15.068 37.6274 14.5132 37.6077 13.9279C37.6304 13.3448 37.878 12.793 38.2986 12.3885C38.7192 11.9839 39.2801 11.7579 39.8637 11.7579C40.4473 11.7579 41.0083 11.9839 41.4289 12.3885C41.8495 12.793 42.0979 13.3448 42.1206 13.9279ZM20.3919 13.9279C20.3693 14.5111 20.1216 15.0628 19.701 15.4674C19.2804 15.8719 18.7195 16.0979 18.1359 16.0979C17.5523 16.0979 16.9914 15.8719 16.5708 15.4674C16.1502 15.0628 15.9026 14.5111 15.8799 13.9279C15.9026 13.3448 16.1502 12.793 16.5708 12.3885C16.9914 11.9839 17.5523 11.7579 18.1359 11.7579C18.7195 11.7579 19.2804 11.9839 19.701 12.3885C20.1216 12.793 20.3693 13.3448 20.3919 13.9279Z" fill="#14A142"/>
<path d="M41.8269 38.2534C36.844 38.2534 32.8027 42.2938 32.8027 47.2775C32.8027 52.2544 36.844 56.2948 41.8269 56.2948C46.8097 56.2948 50.8441 52.2544 50.8441 47.2767C50.8441 42.2938 46.8106 38.2534 41.8269 38.2534ZM41.8269 53.2857C38.5064 53.2857 35.8136 50.5921 35.8136 47.2767C35.8136 45.6824 36.4469 44.1535 37.5742 43.0262C38.7015 41.8989 40.2305 41.2656 41.8247 41.2656C43.419 41.2656 44.9479 41.8989 46.0752 43.0262C47.2025 44.1535 47.8358 45.6824 47.8358 47.2767C47.8356 48.8703 47.2024 50.3986 46.0756 51.5254C44.9487 52.6523 43.4205 53.2854 41.8269 53.2857Z" fill="#E5E8EF"/>
<path d="M36.7553 42.9259L33.4715 50.6851L18.3403 14.1929C17.9545 13.2656 17.8213 12.2527 17.9544 11.2572C18.0874 10.2617 18.4819 9.31932 19.0977 8.52594C19.5871 7.89273 20.2047 7.37011 20.9102 6.99235C21.0552 6.91558 21.2053 6.87891 21.3555 6.87891C21.5415 6.8796 21.7232 6.9356 21.8773 7.03979C22.0315 7.14398 22.1512 7.29165 22.2212 7.46402L30.1408 26.7848L36.7553 42.9259Z" fill="#E5E8EF"/>
<path d="M28.7871 23.484L24.5607 21.6501L19.0977 8.52594C19.587 7.89273 20.2047 7.37011 20.9102 6.99235C21.0552 6.91558 21.2053 6.87891 21.3554 6.87891C21.5415 6.8796 21.7231 6.9356 21.8773 7.03979C22.0314 7.14398 22.1511 7.29165 22.2211 7.46402L28.7871 23.484Z" fill="#CDD4DF"/>
<path d="M30.1806 31.053C30.1806 31.8292 29.558 32.451 28.7895 32.451C28.6005 32.4603 28.4117 32.4312 28.2343 32.3653C28.057 32.2995 27.8949 32.1982 27.7579 32.0678C27.6208 31.9374 27.5118 31.7805 27.4372 31.6066C27.3627 31.4328 27.3242 31.2456 27.3242 31.0564C27.3242 30.8672 27.3627 30.6801 27.4372 30.5062C27.5118 30.3323 27.6208 30.1754 27.7579 30.045C27.8949 29.9146 28.057 29.8134 28.2343 29.7475C28.4117 29.6817 28.6005 29.6525 28.7895 29.6619C29.5588 29.6619 30.1806 30.2837 30.1806 31.0522V31.053Z" fill="#435E88"/>
<path d="M28.7863 30.6319C28.7863 30.7444 28.7416 30.8522 28.6621 30.9317C28.5826 31.0112 28.4748 31.0559 28.3624 31.0559C28.25 31.0559 28.1421 31.0112 28.0626 30.9317C27.9831 30.8522 27.9385 30.7444 27.9385 30.6319C27.9434 30.5229 27.9901 30.42 28.069 30.3446C28.1479 30.2691 28.2528 30.2271 28.362 30.2271C28.4711 30.2271 28.576 30.2691 28.6549 30.3446C28.7338 30.42 28.7814 30.5229 28.7863 30.6319Z" fill="#5E7599"/>
<path d="M30.7898 16H26.5625V14.9858H30.7898V16ZM29.6648 13.6847H26.5483V12.7159H29.6648V13.6847ZM28.3523 11.8267L28.4432 14.2443C28.4527 14.5038 28.4006 14.7206 28.2869 14.8949C28.1752 15.0672 27.982 15.214 27.7074 15.3352L26.9347 14.9858C27.018 14.9687 27.0805 14.9261 27.1222 14.858C27.1657 14.7879 27.1941 14.7045 27.2074 14.608C27.2225 14.5114 27.2292 14.4129 27.2273 14.3125L27.142 11.8267C27.1269 11.4574 27.1979 11.1449 27.3551 10.8892C27.5142 10.6316 27.7339 10.4366 28.0142 10.304C28.2945 10.1695 28.6108 10.1023 28.9631 10.1023C29.2604 10.1023 29.5246 10.1439 29.7557 10.2273C29.9867 10.3087 30.1818 10.4252 30.3409 10.5767C30.5019 10.7263 30.6212 10.9034 30.6989 11.108C30.7765 11.3125 30.8106 11.5369 30.8011 11.7812L29.6506 11.75C29.6544 11.589 29.6259 11.4602 29.5653 11.3636C29.5047 11.267 29.4233 11.197 29.321 11.1534C29.2188 11.1098 29.1061 11.0881 28.983 11.0881C28.8636 11.0881 28.7557 11.1155 28.6591 11.1705C28.5644 11.2235 28.4886 11.3049 28.4318 11.4148C28.3769 11.5227 28.3504 11.66 28.3523 11.8267Z" fill="white"/>
</svg>
