<svg width="58" height="58" viewBox="0 0 58 58" fill="none" xmlns="http://www.w3.org/2000/svg">
<g clip-path="url(#clip0_2198_753)">
<path d="M53.0139 51.0215C51.7826 49.3981 49.4694 49.0794 47.845 50.3084L47.6954 50.1055C46.9873 48.8773 45.4175 48.4557 44.1892 49.1639C43.4599 49.5844 43.0157 50.3089 42.923 51.085C42.3648 49.7547 41.0503 48.8203 39.5174 48.8203C38.289 48.8203 37.2275 49.5604 37.2275 49.5604C36.9945 47.568 35.5351 45.6928 35.5351 45.6928H22.465C22.465 45.6928 21.0055 47.568 20.7726 49.5604C20.7726 49.5604 19.7112 48.8203 18.4828 48.8203C16.9498 48.8203 15.6353 49.7547 15.0772 51.085C14.9843 50.3088 14.5402 49.5844 13.8109 49.1639C12.5827 48.4558 11.013 48.8773 10.3048 50.1055L10.1515 50.3058C8.52738 49.08 6.21667 49.3993 4.9862 51.0215C3.03256 53.5972 4.85536 57.3553 7.85222 58H50.1479C53.1447 57.3553 54.9676 53.5973 53.0139 51.0215Z" fill="#F5F8F9"/>
<path d="M30.9101 42.5613H27.0889C23.7471 45.2255 25.174 50.1396 28.4931 52.1661C28.6457 52.259 28.8209 52.3082 28.9995 52.3082C29.1781 52.3082 29.3533 52.259 29.5059 52.1661C32.825 50.1396 34.2519 45.2254 30.9101 42.5613Z" fill="#FEE97D"/>
<path d="M28.4918 52.1649C28.1437 51.9517 27.8156 51.7074 27.5117 51.4349C30.4216 49.4561 31.7107 45.2232 29.2373 42.5608H30.9116C34.2534 45.2255 32.8263 50.1391 29.5069 52.1661C29.3539 52.2592 29.1783 52.3083 28.9992 52.308C28.8201 52.3078 28.6446 52.2583 28.4918 52.1649Z" fill="#FEDF30"/>
<path d="M19.6003 16.4846L16.2044 19.4613C14.0891 21.3153 12.5811 23.773 11.9328 26.5101C11.8039 27.0536 11.6947 27.6017 11.6054 28.1531C11.5752 28.3401 11.9212 28.6303 11.8953 28.8224C11.7719 29.7387 11.7854 30.6107 11.7961 31.6177C11.805 32.4458 12.4816 33.1117 13.3097 33.1117H21.6224L19.6003 16.4846Z" fill="#D9E7EC"/>
<path d="M21.6238 33.1115H17.7188C16.9406 29.9952 16.4553 27.1227 16.1764 25.1825C15.9161 23.3695 15.8276 21.5388 15.9208 19.7176C16.0141 19.6302 16.1097 19.545 16.2055 19.4609L19.6018 16.4846L21.6238 33.1115Z" fill="#C5D3DD"/>
<path d="M38.399 16.4846L41.795 19.4613C43.9103 21.3153 45.4183 23.773 46.0666 26.5101C46.1955 27.0536 46.3047 27.6017 46.394 28.1531C46.4291 28.3704 46.0123 28.6313 46.0414 28.8555C46.1572 29.7444 46.1785 30.645 46.1681 31.6178C46.1592 32.4459 45.4826 33.1118 44.6545 33.1118H36.377L38.399 16.4846Z" fill="#D9E7EC"/>
<path d="M46.6636 31.6182C46.6544 32.4466 45.9776 33.1115 45.1492 33.1115H43.5823C44.0046 32.8478 44.287 32.3824 44.2928 31.8491C44.3126 29.9812 44.0501 28.2334 43.6977 26.7413C43.049 24.0042 41.5405 21.5459 39.4252 19.6919L38.1465 18.5706L38.3997 16.4846L41.796 19.4609C43.9113 21.3149 45.4198 23.7731 46.0673 26.5103C46.421 28.0024 46.6835 29.7501 46.6636 31.6182Z" fill="#C5D3DD"/>
<path d="M21.6239 33.112H12.8525C12.024 33.112 11.3478 32.4457 11.339 31.6183C11.3257 30.3992 11.4328 29.2321 11.607 28.1532H21.0205L21.6239 33.112Z" fill="#FE646F"/>
<path d="M21.6238 33.1115H17.7187C17.2754 31.337 16.9277 29.6417 16.6582 28.153H21.0206L21.6238 33.1115Z" fill="#FD4755"/>
<path d="M36.377 33.112H45.1483C45.9769 33.112 46.653 32.4457 46.6619 31.6183C46.6751 30.3992 46.5681 29.2321 46.3938 28.1532H36.9804L36.377 33.112Z" fill="#FE646F"/>
<path d="M46.6621 31.6182C46.654 32.4453 45.9773 33.1115 45.1489 33.1115H43.582C44.0043 32.8478 44.2868 32.3824 44.2925 31.8491C44.3065 30.5424 44.1816 29.2952 43.9845 28.153H46.3938C46.5689 29.2322 46.6762 30.3989 46.6621 31.6182Z" fill="#FD4755"/>
<path d="M50.886 57.769C52.034 56.0995 52.2663 53.836 50.9233 52.0661C50.1288 51.0172 48.9352 50.449 47.7148 50.4117C47.7557 50.3779 47.7977 50.3441 47.8408 50.3114C49.4649 49.0793 51.7808 49.3966 53.0129 51.0219C54.8005 53.3774 53.4272 56.7225 50.886 57.769Z" fill="#E8EDF2"/>
<path d="M47.6556 51.0335C46.8611 50.169 45.5473 49.938 44.4868 50.5494C43.9389 50.8649 43.5271 51.3719 43.3305 51.9728C43.0505 51.8048 42.8708 51.4816 42.9175 51.1187C43.0016 50.3301 43.4484 49.5903 44.1892 49.1645C45.4166 48.4563 46.987 48.8775 47.6953 50.106C47.6953 50.106 47.6964 50.1071 47.6976 50.1095C47.8935 50.4094 47.8539 50.778 47.6556 51.0335Z" fill="#E8EDF2"/>
<path d="M43.2088 52.5118C43.2088 53.8243 42.5239 54.977 41.4926 55.6315L41.2696 55.3939C41.0556 55.1664 40.901 54.8896 40.8196 54.5881C40.7382 54.2866 40.7324 53.9697 40.8028 53.6654C40.8656 53.3959 40.8988 53.1151 40.8988 52.8268C40.8988 51.0219 39.6014 49.518 37.8887 49.1983C38.3948 48.9485 38.9519 48.8191 39.5163 48.8203C41.5556 48.8203 43.2088 50.4735 43.2088 52.5118Z" fill="#E8EDF2"/>
<path d="M7.11324 57.769C5.96524 56.0995 5.73302 53.836 7.07597 52.0661C7.87052 51.0172 9.06405 50.449 10.2844 50.4117C10.2432 50.3774 10.2012 50.3439 10.1585 50.3114C8.53435 49.0793 6.21843 49.3966 4.98638 51.0219C3.19892 53.3774 4.57211 56.7225 7.11324 57.769Z" fill="#E8EDF2"/>
<path d="M10.3443 51.0335C11.1388 50.169 12.4526 49.938 13.5131 50.5494C14.061 50.8649 14.4728 51.3719 14.6694 51.9728C14.9494 51.8048 15.1291 51.4816 15.0824 51.1187C14.9983 50.3301 14.5516 49.5903 13.8107 49.1645C12.5833 48.4563 11.0129 48.8775 10.3046 50.106C10.3046 50.106 10.3035 50.1071 10.3023 50.1095C10.1063 50.4094 10.1459 50.778 10.3443 51.0335Z" fill="#E8EDF2"/>
<path d="M14.791 52.5118C14.791 53.8243 15.4759 54.977 16.5072 55.6315L16.7303 55.3939C16.9443 55.1664 17.0989 54.8896 17.1803 54.5881C17.2617 54.2866 17.2674 53.9697 17.197 53.6654C17.1331 53.3904 17.1009 53.1091 17.101 52.8268C17.101 51.0219 18.3985 49.518 20.1112 49.1983C19.605 48.9485 19.048 48.8191 18.4835 48.8203C16.4442 48.8203 14.791 50.4735 14.791 52.5118Z" fill="#E8EDF2"/>
<path d="M27.4038 1.07119C26.1657 2.21895 24.6375 3.70362 22.9818 6.30773C22.8932 6.44729 22.5549 6.54131 22.467 6.68507C21.115 8.89484 19.8704 11.5946 19.1037 14.7773C18.2835 18.1821 18.1543 21.7162 18.6513 25.183C19.0682 28.0899 19.951 33.0916 21.5858 37.8635C21.6827 38.1463 22.3034 38.4285 22.4056 38.7093C22.8028 39.8 23.2408 40.8712 23.723 41.8945C23.9899 42.4608 24.5591 42.3101 25.1851 42.3101H32.9159C33.5419 42.3101 34.1112 42.4608 34.3779 41.8945C34.8569 40.8782 35.141 39.7455 35.536 38.6627C35.6411 38.3744 36.3168 38.154 36.4162 37.8636C38.051 33.0917 38.9339 28.09 39.3507 25.1831C39.8477 21.7164 39.7185 18.1822 38.8983 14.7774C38.1316 11.5947 36.887 8.89496 35.535 6.68518C35.3684 6.41285 35.027 6.42701 34.8579 6.16952C33.272 3.75618 31.7769 2.16401 30.5982 1.0713C29.6978 0.236418 28.3043 0.236418 27.4038 1.07119Z" fill="#F5F8F9"/>
<path d="M39.3491 25.1824C38.8113 28.9311 37.4987 36.1636 34.7977 41.8946C34.6672 42.172 34.4605 42.4066 34.2016 42.5708C33.9427 42.7351 33.6424 42.8222 33.3358 42.8221H30.8764C31.183 42.8222 31.4833 42.7351 31.7421 42.5708C32.001 42.4066 32.2078 42.172 32.3383 41.8946C35.0392 36.1637 36.3518 28.9311 36.8897 25.1824C37.3868 21.7161 37.2572 18.1821 36.437 14.7775C34.6904 7.52527 30.4622 2.78139 28.137 0.626445C28.0238 0.521858 27.9007 0.428458 27.7695 0.347547C28.6504 -0.194957 29.8113 -0.10286 30.5965 0.626445C32.9218 2.78139 37.1499 7.52527 38.8966 14.7777C39.7167 18.1821 39.8462 21.7161 39.3491 25.1824Z" fill="#E8EDF2"/>
<path d="M36.4159 37.8635C35.9425 39.2448 35.4064 40.6069 34.8001 41.8936C34.6695 42.1711 34.4627 42.4058 34.2038 42.5703C33.9448 42.7347 33.6445 42.8221 33.3377 42.8222H24.6641C24.3574 42.8221 24.057 42.7347 23.7981 42.5703C23.5392 42.4058 23.3323 42.1711 23.2018 41.8936C22.5955 40.6068 22.0593 39.2447 21.5859 37.8635H36.4159Z" fill="#FE646F"/>
<path d="M36.4143 37.8636C35.9418 39.2449 35.405 40.6077 34.7983 41.8946C34.6678 42.172 34.461 42.4066 34.2021 42.5708C33.9433 42.7351 33.643 42.8222 33.3364 42.8221H30.877C31.1835 42.8222 31.4838 42.7351 31.7427 42.5708C32.0016 42.4066 32.2083 42.172 32.3388 41.8946C32.9456 40.6077 33.4822 39.2449 33.9548 37.8636H36.4143Z" fill="#FD4755"/>
<path d="M29.0009 22.7474C31.8913 22.7474 34.2343 20.4044 34.2343 17.5141C34.2343 14.6238 31.8913 12.2807 29.0009 12.2807C26.1106 12.2807 23.7676 14.6238 23.7676 17.5141C23.7676 20.4044 26.1106 22.7474 29.0009 22.7474Z" fill="#8AC9FE"/>
<path d="M34.2346 17.5136C34.2346 20.4048 31.8907 22.7476 29.0007 22.7476C27.2962 22.7476 25.7817 21.9332 24.8262 20.6708C25.4582 20.9312 26.1353 21.0648 26.8189 21.064C29.7089 21.064 32.0528 18.7212 32.0528 15.8312C32.0548 14.6912 31.6827 13.5821 30.9934 12.674C32.8952 13.458 34.2346 15.3296 34.2346 17.5136Z" fill="#60B7FF"/>
<path d="M35.534 6.68529H22.4668C24.1924 3.8638 26.0929 1.84116 27.3971 0.631316C28.3017 -0.207871 29.6982 -0.207984 30.6029 0.63109C31.9073 1.84093 33.8083 3.86368 35.534 6.68529Z" fill="#FE646F"/>
<path d="M33.0734 6.68529C31.3455 3.85949 29.4413 1.83516 28.137 0.626445C28.0238 0.521858 27.9007 0.428458 27.7695 0.347547C28.6504 -0.194957 29.8113 -0.10286 30.5965 0.626445C31.9009 1.83516 33.8049 3.85938 35.5329 6.68518L33.0734 6.68529Z" fill="#FD4755"/>
</g>
<defs>
<clipPath id="clip0_2198_753">
<rect width="58" height="58" fill="white"/>
</clipPath>
</defs>
</svg>
