<svg width="151" height="50" viewBox="0 0 151 50" fill="none" xmlns="http://www.w3.org/2000/svg">
<path d="M63.1065 11.7438C63.2794 11.5452 63.6254 11.2225 63.8972 11.0735C64.169 10.9246 64.6384 10.7756 64.9596 10.7756C65.2561 10.7756 65.7503 10.8998 66.0715 11.0735C66.368 11.2225 66.7387 11.5204 66.9116 11.7438C67.0846 11.9672 67.2329 12.5382 67.2329 13.0098C67.2329 13.5063 67.0352 14.1517 66.7881 14.4993C66.541 14.8468 65.9974 15.1944 65.6021 15.2937C65.182 15.393 64.5643 15.2937 64.0948 15.0951C63.6501 14.8965 63.1806 14.5241 63.0324 14.251C62.8841 13.978 62.7853 13.3822 62.7853 12.9602C62.7853 12.5133 62.9335 11.9672 63.1065 11.7438Z" fill="white"/>
<path d="M55.8174 15.0454C55.7926 13.0098 55.8668 11.2721 55.9903 11.1976C56.1139 11.0984 56.954 11.0239 59.5731 11.0239L59.5237 19.0421C59.4496 26.4895 59.4249 27.1101 58.9554 28.1527C58.6589 28.7733 57.9423 29.7414 57.3493 30.3372C56.7069 30.9578 55.6938 31.6033 54.9525 31.9012C54.1124 32.1991 53.0253 32.3728 51.9134 32.3728C50.8015 32.3728 49.7143 32.1991 48.8989 31.9012C48.1329 31.6033 47.1198 30.9578 46.4774 30.3372C45.8844 29.7414 45.1678 28.7733 44.896 28.1527C44.6242 27.5072 44.3771 26.266 44.303 25.1738C44.2289 23.7091 44.303 23.014 44.7231 21.9466C44.9949 21.2019 45.662 20.0848 46.1809 19.4642C46.7245 18.8436 47.6881 18.074 48.3553 17.7513C49.0224 17.4286 50.1837 17.1058 50.925 17.0314C51.691 16.9569 52.7287 17.0562 53.2723 17.23C53.8159 17.4037 54.6313 17.8009 55.8668 18.7194L55.8174 15.0454Z" fill="white"/>
<path d="M4.96648 14.5241C5.70775 14.2014 6.89378 13.8539 7.56092 13.7546C8.22806 13.6553 9.63646 13.6056 10.6495 13.6801C11.6626 13.7546 12.9227 13.9035 14.3559 14.251V17.9747L13.1945 17.6023C12.478 17.3789 11.119 17.23 9.78472 17.23C8.47515 17.2548 7.14087 17.4037 6.57256 17.6272C6.02897 17.8258 5.38654 18.1733 5.11474 18.4215C4.86765 18.645 4.42289 19.2904 4.15109 19.8365C3.75575 20.6061 3.63221 21.3012 3.6075 22.9396C3.6075 24.7517 3.70633 25.2482 4.24993 26.2909C4.7441 27.2838 5.13945 27.6562 6.22664 28.2272C7.38796 28.8229 7.83271 28.9222 9.66117 28.8974C10.8225 28.8974 12.3544 28.7485 14.3559 28.2768V30.089C14.3559 31.7274 14.3064 31.9012 13.8123 32.0253C13.491 32.1246 12.305 32.2735 11.1437 32.348C9.98239 32.4473 8.37631 32.4225 7.56092 32.3232C6.74552 32.1991 5.53479 31.8515 4.84294 31.5288C4.1758 31.2309 3.13803 30.4613 2.54501 29.8656C1.952 29.2698 1.18603 28.2272 0.864811 27.5321C0.543595 26.8618 0.197671 25.571 0.0741266 24.6773C-0.0247089 23.7836 -0.0247089 22.3438 0.0741266 21.4501C0.197671 20.5564 0.518887 19.2904 0.840102 18.5953C1.16132 17.925 1.90258 16.8576 2.4956 16.237C3.11332 15.6412 4.22522 14.8717 4.96648 14.5241Z" fill="white"/>
<path d="M70.4697 26.4895C70.3215 25.7447 70.1979 22.6169 70.1979 19.34V13.5063H73.9043V17.7265H78.5989V20.9536H73.9043L73.9537 23.7836C74.0278 26.2412 74.1019 26.7129 74.5467 27.3335C74.8432 27.7058 75.3374 28.2272 75.6586 28.4754C76.0539 28.7981 76.7458 28.9471 79.3402 29.0215V32.3728H77.8083C76.9435 32.3728 75.7574 32.2239 75.1397 32.0005C74.522 31.8019 73.5336 31.2061 72.9406 30.7096C72.3476 30.1883 71.6063 29.3194 71.3098 28.7733C70.9886 28.2272 70.618 27.1845 70.4697 26.4895Z" fill="white"/>
<path d="M21.1508 18.0243C21.5461 17.8258 22.3368 17.503 22.8804 17.3293C23.424 17.1555 24.4865 17.0314 26.5868 17.1058V20.5813L25.5984 20.5068C25.0548 20.4571 24.2147 20.5564 23.7452 20.7302C23.2758 20.8791 22.5839 21.3012 22.2133 21.6735C21.8426 22.0211 21.4226 22.7906 21.2743 23.3864C21.1508 23.9574 21.0273 26.2164 21.0273 32.3728H17.568V27.8548C17.568 24.5283 17.6668 22.9644 17.9386 22.0211C18.1857 21.1522 18.6799 20.3082 19.3471 19.5635C19.9401 18.918 20.7555 18.2478 21.1508 18.0243Z" fill="white"/>
<path d="M31.7756 18.0243C32.171 17.8258 32.9616 17.503 33.5052 17.3044C34.0735 17.1307 35.2349 17.0065 36.2232 17.0562C37.4834 17.1058 38.3482 17.3044 39.3612 17.8009C40.1519 18.1733 41.0167 18.7691 41.2638 19.1663C41.5356 19.5386 41.8815 20.333 42.0298 20.9536C42.2769 21.8225 42.2769 22.319 42.0298 23.1878C41.8568 23.8829 41.3874 24.6276 40.8191 25.1738C40.3249 25.6702 39.3612 26.2412 38.6941 26.4895C38.0023 26.7129 36.7421 26.9115 35.8526 26.9115C34.9631 26.9115 33.7523 26.7625 33.1346 26.5391C32.5169 26.3405 31.998 26.2164 31.9486 26.2909C31.9239 26.3653 32.0968 26.7625 32.3192 27.1597C32.5663 27.6065 33.2334 28.1527 33.8759 28.4506C34.8642 28.9222 35.2596 28.9719 37.5822 28.8229C39.0153 28.7485 40.4237 28.5747 40.7449 28.4754C41.3132 28.2768 41.338 28.3016 41.165 31.7522L39.9296 32.0749C39.1636 32.2735 37.7057 32.3728 36.0997 32.2983C34.1724 32.2487 33.2087 32.0998 32.3933 31.7274C31.7756 31.4543 30.812 30.7344 30.219 30.1386C29.5765 29.4684 28.9341 28.4754 28.6376 27.6562C28.2422 26.5639 28.1681 25.8688 28.2422 24.3049C28.3164 22.8899 28.514 21.9962 28.9094 21.2019C29.2306 20.5813 29.8236 19.7124 30.2684 19.2656C30.6884 18.7939 31.3803 18.2478 31.7756 18.0243Z" fill="white"/>
<path d="M103.308 18.4215C103.654 18.1733 104.543 17.7265 105.285 17.4782C106.026 17.2051 107.187 17.0065 107.879 16.9817C108.546 16.9817 109.658 17.1307 110.35 17.3044C111.017 17.4782 112.079 17.9995 112.697 18.4215C113.315 18.8684 114.13 19.7124 114.501 20.2834C114.872 20.8543 115.316 21.7728 115.465 22.319C115.588 22.8651 115.662 24.2056 115.613 25.2979C115.539 26.5391 115.341 27.6065 115.045 28.1527C114.797 28.6243 114.254 29.4436 113.834 29.9649C113.389 30.5358 112.45 31.2309 111.585 31.6529C110.424 32.2239 109.757 32.3728 108.546 32.3728C107.706 32.3728 106.594 32.1991 106.075 31.9756C105.581 31.777 104.914 31.355 104.024 30.511L104.049 38.3307H100.343L100.417 30.5855C100.466 25.4965 100.59 22.4927 100.788 21.8969C100.96 21.3756 101.455 20.482 101.875 19.911C102.319 19.3649 102.962 18.6698 103.308 18.4215Z" fill="white"/>
<path d="M63.2794 32.3728V24.8014V17.23H66.7387V32.3728H63.2794Z" fill="white"/>
<path d="M82.8242 28.525C82.2064 27.3335 82.1817 27.1101 82.1076 22.2693L82.0335 17.23H85.5174V21.2763C85.5174 23.4857 85.641 25.7199 85.7645 26.2412C85.9128 26.7377 86.3081 27.5072 86.6787 27.9293C87.0988 28.3761 87.7659 28.7733 88.359 28.8974C88.952 29.0215 89.7427 29.0215 90.3357 28.8974C90.8793 28.7485 91.6205 28.3513 91.9911 27.9789C92.3618 27.5817 92.7818 26.8122 92.9301 26.2412C93.0536 25.6454 93.1772 23.3864 93.1772 17.23H96.6364V21.7728C96.6364 25.422 96.5623 26.5391 96.2164 27.6314C95.9199 28.5002 95.3763 29.4436 94.6597 30.2131C93.8937 31.0323 93.1278 31.5784 92.2382 31.9012C91.497 32.1742 90.311 32.3728 89.3967 32.3728C88.5566 32.3728 87.3706 32.2239 86.7529 32.0005C86.1352 31.8019 85.1468 31.2061 84.5538 30.7096C83.9608 30.1883 83.1701 29.2201 82.8242 28.525Z" fill="white"/>
<path fill-rule="evenodd" clip-rule="evenodd" d="M136.195 1.83887C136.319 1.83887 136.862 2.36018 137.431 3.03044C137.974 3.67587 138.814 4.81779 139.259 5.56252C139.729 6.30725 140.371 7.67259 140.717 8.61592C141.063 9.53442 141.359 10.3784 141.359 10.5274C141.359 10.6763 140.297 10.7756 135.924 10.7756L135.973 6.58032C136.022 4.27165 135.973 2.43465 135.849 2.4843C135.751 2.53395 135.751 2.40983 135.825 2.21123C135.899 2.01264 136.072 1.83887 136.195 1.83887ZM138.963 12.2651C141.038 12.2403 141.557 12.3147 141.854 12.6623C142.175 13.0098 142.224 14.3007 142.224 20.8047C142.224 25.7447 142.298 28.5995 142.471 28.6988C142.62 28.8229 142.57 28.8974 142.348 28.8974C142.027 28.8974 142.027 28.9222 142.348 29.1457C142.546 29.2698 142.595 29.3939 142.471 29.3939C142.323 29.3939 142.274 29.8904 142.323 30.5855C142.397 31.4543 142.2 32.4721 141.508 34.607C140.989 36.171 140.223 38.1817 139.803 39.0754C139.037 40.6642 138.987 40.689 137.95 40.7635C137.381 40.7883 136.714 40.7138 136.467 40.5897C136.096 40.3911 136.047 39.8201 135.948 35.451C135.899 32.7204 135.825 29.667 135.8 28.6492C135.775 27.6314 135.8 26.6384 135.849 26.4646C135.899 26.3157 136.047 26.2164 136.171 26.2909C136.294 26.3653 136.22 26.1171 135.998 25.7199C135.578 25.0745 135.578 25.0745 135.998 25.422C136.319 25.6951 136.442 25.6951 136.418 25.4965C136.418 25.3227 136.294 25.1241 136.171 25.0496C136.047 24.9752 136.368 24.4787 136.912 23.9325C137.48 23.3616 137.999 22.5424 138.147 21.9962C138.271 21.4998 138.394 20.7054 138.394 20.2585C138.394 19.8365 138.172 19.0173 137.9 18.4712C137.628 17.9251 137.11 17.2051 136.714 16.8824C136.171 16.3611 136.022 16.0136 135.924 14.7475C135.849 13.7546 135.924 13.0595 136.121 12.7368C136.393 12.3147 136.739 12.2651 138.963 12.2651ZM142.298 39.2243C142.348 39.6215 142.274 40.0436 142.175 40.1677C142.076 40.267 141.829 40.2918 141.656 40.2173C141.508 40.1429 141.359 39.9194 141.335 39.7208C141.335 39.5222 141.532 39.1747 141.78 38.9265C142.2 38.5044 142.224 38.5044 142.298 39.2243ZM137.653 42.3026C137.727 42.2777 137.925 42.4267 138.098 42.6005C138.271 42.7991 138.37 43.4197 138.345 44.1644C138.271 45.3063 138.221 45.4056 137.653 45.4056C137.085 45.4056 137.035 45.3063 136.961 44.0403C136.912 43.13 136.994 42.617 137.208 42.5012C137.381 42.4019 137.579 42.3026 137.653 42.3026Z" fill="#B71994"/>
<path d="M124.557 16.9817C124.705 16.9817 124.73 16.8328 124.631 16.6838V16.659C124.508 16.4356 124.532 16.4356 124.829 16.659C125.027 16.8328 125.274 16.9073 125.422 16.7831C125.546 16.6838 125.471 16.8576 125.224 17.1555C124.977 17.503 124.903 17.7761 125.051 17.8506C125.2 17.9251 125.249 18.1733 125.2 18.3967C125.125 18.645 125.076 18.8684 125.076 18.8932C125.051 18.9429 125.027 19.1166 124.977 19.2656C124.928 19.4393 125.027 19.7372 125.15 19.9358C125.348 20.2089 125.348 20.2586 125.125 20.1344C124.952 20.0351 124.804 20.0103 124.804 20.0848C124.804 20.1593 124.928 20.482 125.051 20.8295C125.2 21.1771 125.224 21.4998 125.125 21.5494C125.002 21.5991 124.878 21.4005 124.829 21.1274C124.804 20.8295 124.73 20.2834 124.705 19.911C124.705 19.5635 124.631 19.3152 124.557 19.3897C124.483 19.4642 124.409 19.6876 124.384 19.911C124.359 20.1593 124.458 20.5813 124.582 20.8792C124.73 21.2515 124.705 21.4501 124.557 21.4501C124.434 21.4501 124.458 21.5991 124.631 21.7977C124.854 22.0707 125.002 22.0707 125.274 21.8473C125.57 21.6239 125.595 21.6487 125.422 21.9466C125.298 22.1452 125.175 22.5424 125.15 22.8155C125.125 23.0885 125.076 23.4112 125.051 23.5602C125.027 23.7091 125.002 23.9574 125.027 24.1063C125.027 24.3049 125.175 24.3546 125.348 24.2304C125.57 24.1063 125.595 24.156 125.422 24.429C125.298 24.6276 125.15 25.2234 125.125 25.7199C125.076 26.2412 125.051 26.7129 125.051 26.7874V27.408C125.051 27.681 125.051 27.9293 125.076 27.9541C125.076 28.0037 125.125 28.2272 125.2 28.4506C125.249 28.6988 125.2 28.8478 125.051 28.7733C124.928 28.6988 124.755 28.7485 124.681 28.8974C124.607 29.0464 124.705 29.1705 124.878 29.1705C125.027 29.1953 125.298 29.1705 125.422 29.1457C125.57 29.1208 125.471 29.3443 125.249 29.6173C124.977 29.9152 124.903 30.1883 125.051 30.2628C125.2 30.3372 125.249 30.4862 125.175 30.6351C125.101 30.7841 124.952 30.8834 124.804 30.8834C124.681 30.8834 124.582 30.6848 124.631 30.4365C124.656 30.2131 124.804 29.8408 124.928 29.6422C125.125 29.3691 125.076 29.3194 124.804 29.4187C124.557 29.5429 124.409 29.4187 124.384 29.0464C124.359 28.7733 124.483 28.3761 124.631 28.2023C124.878 27.9293 124.854 27.8796 124.557 28.0037C124.236 28.1279 124.187 27.5569 124.137 23.6843C124.088 21.2267 124.137 19.1663 124.261 19.1166C124.359 19.067 124.409 18.5457 124.384 17.9995C124.335 17.4286 124.434 16.9817 124.557 16.9817Z" fill="#530B93"/>
<path d="M122.21 33.3162C122.358 33.341 122.432 32.6707 122.407 31.7026C122.383 30.6351 122.432 30.1386 122.58 30.2876C122.729 30.4365 123.099 31.6033 123.421 32.8941C123.766 34.185 124.187 35.6993 124.384 36.2454C124.607 36.8412 124.681 37.3874 124.557 37.6108C124.434 37.8342 124.458 38.1321 124.607 38.3555C124.804 38.6534 124.829 38.6534 124.705 38.281C124.631 38.0576 124.631 37.8094 124.755 37.7597C124.854 37.7101 124.928 38.1321 124.903 38.6782C124.903 39.2492 125.002 39.8698 125.15 40.0684C125.348 40.3415 125.348 40.3911 125.125 40.267C124.928 40.1677 124.755 40.267 124.681 40.4656C124.607 40.6642 124.681 40.7883 124.804 40.7138C124.952 40.6393 125.051 40.6642 125.051 40.7635C125.027 40.8876 124.088 41.7068 122.951 42.6253C121.79 43.5686 120.801 44.3134 120.727 44.3134C120.653 44.3134 120.678 44.1148 120.777 43.8665C120.925 43.5438 120.9 43.4941 120.604 43.6927C120.332 43.8665 120.283 43.8665 120.431 43.6183C120.554 43.4197 120.703 43.3948 120.925 43.5686C121.073 43.6927 121.32 43.7424 121.419 43.6183C121.518 43.519 121.592 43.37 121.592 43.2459C121.592 43.1466 121.493 43.1218 121.345 43.1963C121.221 43.2707 121.123 43.1963 121.172 43.0225C121.197 42.8487 121.345 42.5756 121.469 42.4267C121.617 42.2529 121.814 42.2033 121.963 42.3026C122.111 42.3771 122.136 42.3274 122.012 42.1288C121.889 41.9302 121.691 41.9054 121.345 42.0792C121.073 42.2281 120.777 42.3274 120.678 42.3274C120.554 42.3274 120.752 42.104 121.716 41.3593L121.024 40.7883C120.563 40.4077 120.414 40.1346 120.579 39.9691C120.703 39.8201 120.777 39.5719 120.703 39.3981C120.653 39.2492 120.727 39.1002 120.851 39.1002C120.999 39.1002 121.048 39.1995 120.974 39.3485C120.9 39.4974 121.024 39.5967 121.221 39.5967C121.419 39.5967 121.592 39.7457 121.592 39.8946C121.592 40.0684 121.74 39.9939 121.963 39.7208C122.16 39.4478 122.333 39.1251 122.333 38.9761C122.333 38.8272 122.21 38.9265 122.037 39.1747C121.74 39.5967 121.691 39.5967 121.419 39.0009C121.246 38.6534 121.221 38.4052 121.345 38.4796C121.493 38.5541 121.543 38.3803 121.444 38.0328C121.37 37.7349 121.493 37.0895 122.111 35.7489L121.098 36.9902L121.345 36.2951C121.469 35.9227 121.518 35.4759 121.419 35.3021C121.345 35.1532 121.246 34.7063 121.246 34.334C121.221 33.9368 121.296 33.6389 121.419 33.6389C121.518 33.6389 121.617 34.0112 121.617 34.4333C121.666 35.2028 121.666 35.2028 121.814 34.2595C121.889 33.7134 122.086 33.2913 122.21 33.3162Z" fill="#530B93"/>
<path d="M121.272 31.9507C121.716 31.5039 122.087 31.0322 122.087 30.8833C122.087 30.7343 122.161 30.635 122.26 30.635C122.383 30.635 122.458 31.2308 122.458 31.9755C122.458 32.7203 122.359 33.316 122.211 33.2912C122.087 33.2664 121.889 33.6884 121.815 34.2345C121.667 35.1779 121.667 35.1779 121.617 34.4083C121.617 33.9863 121.519 33.6139 121.395 33.6139C121.296 33.6139 121.222 33.9118 121.247 34.309C121.247 34.6814 121.346 35.1282 121.42 35.2772C121.519 35.4509 121.469 35.8978 121.099 36.9652L122.112 35.724L121.716 36.5929C121.494 37.0645 121.37 37.71 121.445 38.0078C121.543 38.3554 121.494 38.5292 121.346 38.4547C121.222 38.3802 121.247 38.6285 121.395 38.976C121.692 39.5718 121.741 39.5718 122.038 39.1498C122.211 38.9015 122.334 38.8022 122.334 38.9512C122.334 39.1001 122.161 39.4228 121.963 39.6959C121.741 39.969 121.593 40.0434 121.593 39.8697C121.593 39.7207 121.42 39.5718 121.222 39.5718C121.024 39.5718 120.901 39.4725 120.975 39.3235C121.049 39.1746 120.975 39.0753 120.852 39.0753C120.728 39.0753 120.654 39.2242 120.703 39.3732C120.777 39.547 120.703 39.7952 120.58 39.9441C120.407 40.1179 120.555 40.391 121.716 41.3343L121.099 41.8308C120.753 42.079 120.555 42.3025 120.654 42.3025C120.777 42.3025 121.074 42.2032 121.346 42.0542C121.692 41.8804 121.889 41.9053 122.013 42.1039C122.136 42.3025 122.112 42.3521 121.963 42.2528C121.84 42.1783 121.593 42.228 121.469 42.4018C121.346 42.5507 121.197 42.8486 121.148 43.0472C121.099 43.3203 121.173 43.2954 121.395 42.9975C121.568 42.7493 121.79 42.6003 121.889 42.6748C122.013 42.7493 121.889 43.0224 121.667 43.2954C121.346 43.6181 121.123 43.6926 120.901 43.5437C120.703 43.3782 120.547 43.3947 120.431 43.5933C120.3 43.8085 120.341 43.8498 120.555 43.7174C120.753 43.6016 120.835 43.6843 120.802 43.9657C120.753 44.2139 120.234 44.8345 119.616 45.3559C118.998 45.8523 118.43 46.2744 118.331 46.2744C118.208 46.2744 117.886 45.8523 117.59 45.3559C117.293 44.8345 116.948 43.7423 116.799 42.9231C116.626 41.8556 116.651 41.0612 116.849 40.0683C117.022 39.3235 117.541 37.8589 118.035 36.8411C118.529 35.8233 119.27 34.4828 119.69 33.8622C120.11 33.2416 120.802 32.3727 121.272 31.9507Z" fill="#330694"/>
<path d="M128.561 4.59442C128.585 4.49512 129.08 3.87451 129.623 3.22908C130.191 2.60847 130.71 2.08716 130.784 2.08716C130.859 2.08716 130.908 3.82486 130.883 5.93493C130.859 9.08763 130.784 9.85718 130.488 10.031C130.241 10.1964 130.216 10.2792 130.414 10.2792C130.587 10.2792 130.735 10.3785 130.735 10.5274C130.735 10.6764 130.439 10.7757 130.068 10.7757C129.673 10.7757 129.154 10.5771 128.882 10.3537C128.61 10.1302 128.536 10.0061 128.758 10.0806C129.055 10.1799 129.129 9.9813 129.129 9.1621C129.129 8.56632 129.055 8.1443 128.931 8.19395C128.832 8.2436 128.808 8.66561 128.882 9.11245C128.956 9.65859 128.931 9.80753 128.758 9.53447C128.635 9.33587 128.585 8.83938 128.66 8.41737C128.734 7.99536 128.882 7.57334 128.956 7.4244C129.055 7.27545 128.956 7.25062 128.141 7.59817L128.635 7.05203C129.055 6.60519 129.08 6.50589 128.758 6.33212C128.487 6.15835 128.462 6.08388 128.684 5.95976C128.857 5.88528 128.956 5.63704 128.882 5.43845C128.808 5.23985 128.882 5.06608 129.005 5.06608C129.129 5.06608 129.203 4.96678 129.129 4.81784C129.055 4.66889 128.882 4.61924 128.758 4.69372C128.635 4.76819 128.536 4.71854 128.561 4.59442Z" fill="#7B1195"/>
<path d="M129.03 12.712C129.03 12.5879 128.808 12.4637 128.561 12.4141H128.585C128.338 12.3644 128.561 12.3148 129.08 12.29C129.747 12.2651 129.944 12.3396 129.821 12.563C129.673 12.7865 129.747 12.8113 130.117 12.6872C130.389 12.563 130.537 12.563 130.439 12.6872C130.315 12.7865 130.364 13.0347 130.488 13.2085C130.636 13.3574 130.809 13.4567 130.933 13.4071C131.032 13.3574 131.106 13.6801 131.106 14.127C131.106 14.5738 131.032 14.8965 130.933 14.8469C130.809 14.7972 130.612 14.9958 130.439 15.3185C130.191 15.815 130.191 15.8399 130.587 15.4923C130.809 15.2937 131.081 15.1944 131.18 15.3185C131.279 15.4178 131.205 15.4923 131.056 15.4923C130.883 15.4923 130.735 15.6661 130.735 15.8647C130.735 16.0881 130.612 16.1626 130.439 16.0633C130.216 15.9143 130.191 15.964 130.34 16.237C130.537 16.5598 130.612 16.5349 130.908 16.1129C131.081 15.8399 131.229 15.7157 131.229 15.8647C131.229 16.0136 130.784 16.5598 130.216 17.1059C129.673 17.652 129.154 18.3719 129.08 18.7195C128.931 19.2904 128.907 19.3153 128.734 18.8436C128.635 18.5705 128.61 18.0989 128.66 17.801C128.709 17.4783 128.61 17.0314 128.462 16.808C128.289 16.5846 128.264 16.4605 128.388 16.5349C128.536 16.6094 128.635 16.3612 128.635 15.8895C128.61 15.4675 128.511 14.9462 128.388 14.7476C128.215 14.4745 128.239 14.4249 128.462 14.5738C128.684 14.6979 128.734 14.4993 128.684 13.7794C128.66 13.2581 128.684 12.8361 128.758 12.8858C128.832 12.9354 128.882 13.705 128.882 14.6235C128.882 15.542 128.931 16.3115 129.005 16.3612C129.08 16.4108 129.104 15.6413 129.104 14.6731C129.08 13.6801 129.055 12.8113 129.03 12.712Z" fill="#7B1195"/>
<path d="M128.363 24.9752C128.511 25.0745 128.61 24.4787 128.61 23.4113C128.61 22.468 128.684 21.6984 128.783 21.6984C128.907 21.6984 128.981 21.7977 128.981 21.9466C128.981 22.0956 129.005 22.2694 129.055 22.3935C129.08 22.4928 129.351 22.9148 129.648 23.312C129.944 23.734 130.117 24.156 130.018 24.2801C129.92 24.4043 130.043 24.4291 130.29 24.3546C130.537 24.2553 130.661 24.2801 130.587 24.4291C130.513 24.578 130.537 24.727 130.661 24.7518C130.76 24.8014 130.686 24.8014 130.537 24.7518C130.34 24.7021 130.266 24.8511 130.315 25.1242C130.389 25.3476 130.439 25.5958 130.463 25.6703C130.488 25.7448 130.488 25.8937 130.463 26.0427C130.414 26.1916 130.364 29.5181 130.34 40.6642L129.302 40.7387C128.437 40.7883 128.264 40.7387 128.363 40.4408C128.437 40.2422 128.61 40.0933 128.758 40.1429C128.907 40.1677 129.08 39.994 129.129 39.7705C129.178 39.5223 129.104 39.3733 128.981 39.4478C128.857 39.5223 128.808 39.7209 128.907 39.8947C128.981 40.0684 128.956 40.0932 128.832 39.9939C128.709 39.8698 128.61 36.742 128.61 32.9438C128.61 28.7237 128.709 26.0675 128.857 25.9682C129.005 25.8689 129.03 25.9185 128.907 26.1171C128.808 26.2661 128.882 26.4895 129.055 26.5888C129.203 26.6633 129.277 26.6384 129.178 26.5143C129.055 26.3902 129.129 26.142 129.302 25.9434C129.45 25.7448 129.475 25.6455 129.351 25.7448C129.228 25.8441 128.882 25.6703 128.61 25.3724C128.338 25.0745 128.239 24.9007 128.363 24.9752Z" fill="#7B1195"/>
<path d="M128.783 44.1644C128.758 43.4694 128.857 42.7743 129.005 42.6253C129.154 42.4516 129.376 42.3026 129.5 42.3026C129.623 42.3026 129.895 42.4764 130.093 42.675C130.29 42.8736 130.463 43.4197 130.463 43.8666C130.463 44.2886 130.34 44.8595 130.167 45.1078C129.969 45.3808 129.623 45.5298 129.351 45.4801C128.956 45.4057 128.857 45.1822 128.783 44.1644Z" fill="#7B1195"/>
<path d="M142.274 22.8649C142.298 19.7122 142.348 16.8823 142.348 16.6092C142.373 16.2617 142.447 16.3361 142.595 16.8574C142.718 17.2795 142.768 17.6766 142.694 17.7759C142.644 17.9001 142.718 18.198 142.842 18.471C142.966 18.7441 143.089 20.6804 143.089 22.7408C143.114 24.8261 143.04 27.2092 142.99 28.0284C142.916 28.8476 142.768 29.7413 142.546 30.5108L142.298 30.0143C142.101 29.642 142.125 29.4682 142.373 29.3441C142.644 29.1951 142.644 29.1455 142.348 29.1455C142.027 29.1455 142.027 29.1207 142.348 28.8973C142.546 28.7731 142.595 28.649 142.471 28.649C142.323 28.649 142.249 26.5886 142.274 22.8649Z" fill="#E01F94"/>
<path d="M143.682 32.8691C143.88 32.1244 144.102 31.2059 144.176 30.8336C144.275 30.4364 144.423 30.1385 144.522 30.1385C144.621 30.1385 145.041 30.5605 145.461 31.0818C145.857 31.5783 146.301 32.1741 146.45 32.3727C146.598 32.6457 146.573 32.6954 146.351 32.5713C146.153 32.4389 146.087 32.5216 146.153 32.8195C146.227 33.0429 146.277 33.316 146.277 33.4401C146.301 33.5394 146.45 33.5394 146.598 33.4401C146.812 33.3077 146.853 33.3491 146.721 33.5642C146.622 33.7132 146.622 33.9118 146.721 33.9614C146.845 34.0111 146.87 34.6069 146.82 35.2771C146.771 35.9225 146.697 37.8837 146.697 39.6214C146.672 42.3769 146.622 42.7244 146.301 42.4762C146.079 42.3024 146.079 42.3769 146.351 42.6748C146.598 42.9478 146.795 43.2706 146.795 43.4195C146.82 43.5684 146.647 43.494 146.425 43.2954C146.202 43.0968 146.029 42.9727 146.029 43.0471C146.029 43.1215 146.251 43.394 147.04 44.1615C147.04 44.1606 147.041 44.1597 147.042 44.1588L146.968 43.4691C146.944 43.072 147.043 42.6996 147.166 42.6251C147.29 42.5258 147.339 42.5755 147.24 42.6996C147.141 42.8237 147.166 43.1216 147.29 43.3699C147.463 43.6677 147.438 43.8663 147.166 44.0401C147.119 44.0759 147.077 44.1161 147.042 44.1588L147.043 44.1642C147.042 44.1633 147.041 44.1624 147.04 44.1615C146.932 44.2958 146.894 44.4552 146.968 44.5862C147.117 44.8097 147.067 44.8345 146.771 44.6607C146.548 44.5118 145.338 43.5436 144.102 42.501C142.175 40.8378 141.903 40.5151 142.15 40.1675C142.364 39.9027 142.414 39.4642 142.298 38.8518C142.15 38.1816 142.249 37.4865 142.718 36.0963C143.064 35.0785 143.509 33.6139 143.682 32.8691Z" fill="#E01F94"/>
<path d="M126.609 8.66544C126.905 8.59096 126.979 8.39237 126.856 8.04483C126.782 7.77176 126.806 7.54834 126.93 7.54834C127.053 7.54834 127.103 7.74693 127.029 7.97035C126.955 8.31789 127.004 8.36754 127.276 8.19377C127.572 7.99518 127.597 8.02 127.399 8.31789C127.251 8.51649 127.152 8.83921 127.152 9.0378C127.152 9.2364 127.226 9.50946 127.325 9.65841C127.399 9.80736 127.325 10.1301 127.128 10.4031C126.806 10.85 126.782 10.8003 126.905 9.78253C126.979 9.16192 126.955 8.76473 126.856 8.86403C126.732 8.98815 126.633 9.38534 126.609 9.73288C126.609 10.1052 126.584 10.4776 126.559 10.5769C126.535 10.701 126.362 10.7755 126.164 10.7755C125.966 10.7755 125.793 10.6266 125.793 10.4776C125.793 10.3038 125.942 9.93148 126.164 9.65841C126.362 9.38534 126.436 9.08745 126.337 8.98815C126.238 8.88886 126.362 8.73991 126.609 8.66544Z" fill="#630D94"/>
<path d="M124.953 13.4565C125.027 12.8856 125.25 12.4884 125.497 12.4387C125.719 12.3891 126.139 12.3643 126.411 12.4139C126.683 12.4387 127.029 12.4884 127.152 12.5132C127.276 12.5132 127.177 12.7118 126.905 12.9352C126.633 13.1338 126.584 13.2579 126.782 13.1835C126.979 13.109 127.226 13.109 127.325 13.2083C127.424 13.3076 127.449 13.4814 127.35 13.6303C127.251 13.7793 127.177 14.1764 127.177 14.524C127.152 14.8963 127.251 15.1198 127.399 15.0453C127.523 14.9708 127.523 15.0701 127.35 15.2687C127.177 15.4673 127.078 15.8397 127.128 16.1127C127.177 16.3858 127.276 16.7582 127.325 16.9568C127.35 17.1305 127.276 17.3043 127.152 17.354C127.029 17.3788 126.979 17.354 127.103 17.3043C127.202 17.2795 127.177 17.0312 127.053 16.8078C126.955 16.5596 126.856 16.0879 126.88 15.79C126.88 15.4673 126.856 15.1694 126.782 15.1198C126.708 15.0701 126.658 15.8645 126.658 16.8575C126.658 17.8504 126.732 18.5455 126.831 18.3966C126.93 18.2228 126.955 18.049 126.905 17.9746C126.856 17.9001 126.955 17.8504 127.128 17.8504C127.301 17.8504 127.424 17.9746 127.424 18.1483C127.399 18.2973 127.325 18.3718 127.226 18.3221C127.103 18.2725 126.955 18.5207 126.856 18.9179C126.782 19.2903 126.658 19.9853 126.633 20.457C126.584 20.9287 126.633 21.2266 126.732 21.1273C126.831 21.0031 126.905 20.5563 126.905 20.1343C126.905 19.6626 127.053 19.3399 127.276 19.2903C127.474 19.2406 127.498 19.2654 127.35 19.3399C127.177 19.4144 127.029 19.5633 127.029 19.7123C127.029 19.8612 127.177 19.886 127.35 19.7867C127.572 19.6626 127.572 19.6874 127.35 19.9853C127.103 20.2584 127.103 20.4074 127.35 20.6804C127.572 20.9535 127.572 21.0031 127.35 20.8542C127.152 20.7797 127.029 20.8542 127.029 21.0776C127.029 21.301 127.152 21.3755 127.35 21.2762C127.572 21.1521 127.572 21.1769 127.35 21.4748C127.177 21.6734 127.103 21.9216 127.226 22.0209C127.325 22.1451 127.424 22.3933 127.474 22.5919C127.498 22.7905 127.399 22.8898 127.276 22.8153C127.152 22.7408 126.979 22.9146 126.905 23.1877C126.831 23.4856 126.658 23.6097 126.485 23.5104C126.238 23.3863 126.238 23.4359 126.436 23.709C126.584 23.9076 126.683 24.8509 126.683 25.8439C126.658 26.812 126.732 27.4823 126.831 27.3334C126.93 27.1596 126.955 26.9858 126.905 26.9113C126.856 26.8369 126.955 26.7872 127.103 26.7624C127.276 26.7624 127.399 26.8865 127.399 27.0603C127.399 27.2341 127.35 27.3334 127.276 27.2837C127.202 27.2341 127.004 27.5568 126.831 27.9788C126.535 28.6987 126.535 28.7483 126.905 28.4008C127.103 28.2022 127.375 28.1029 127.474 28.227C127.572 28.3263 127.523 28.4008 127.399 28.4008C127.276 28.4008 127.004 28.6987 126.806 29.0711C126.51 29.7165 126.51 29.7413 126.88 29.3938C127.103 29.1952 127.375 29.0959 127.474 29.22C127.572 29.3193 127.498 29.3938 127.35 29.3938C127.177 29.3938 126.955 29.642 126.856 29.9647C126.757 30.2626 126.683 31.2059 126.683 32.05C126.658 32.8692 126.732 33.4401 126.831 33.2912C126.93 33.1174 126.955 32.9437 126.905 32.8692C126.856 32.7947 126.955 32.7451 127.128 32.7451C127.301 32.7451 127.424 32.8692 127.424 33.043C127.399 33.1919 127.35 33.2664 127.276 33.2167C127.202 33.1423 127.004 33.4401 126.856 33.8622C126.683 34.2593 126.584 34.8551 126.658 35.1778C126.732 35.4757 126.708 35.9474 126.633 36.2205C126.559 36.5184 126.411 36.6177 126.287 36.4687C126.189 36.3198 125.917 35.5999 125.67 34.8551C125.447 34.1104 125.324 33.3408 125.398 33.1919C125.472 33.0181 125.423 32.9188 125.299 32.9933C125.176 33.0678 125.052 32.9685 125.052 32.8195C125.052 32.6458 124.978 32.2237 124.879 31.8762C124.731 31.3797 124.78 31.3052 125.052 31.4542C125.25 31.5535 125.225 31.5038 125.003 31.3301C124.632 31.0322 124.632 30.9825 125.003 30.7343C125.373 30.486 125.373 30.4364 125.052 30.2378C124.756 30.064 124.731 30.0889 124.928 30.3867C125.101 30.6598 125.101 30.7095 124.854 30.5853C124.632 30.4364 124.681 30.2378 125.027 29.8406C125.522 29.2697 125.522 29.2697 124.978 29.2448C124.681 29.22 124.583 29.2448 124.756 29.2945C124.904 29.3441 125.003 29.4931 124.928 29.642C124.854 29.791 124.706 29.8903 124.558 29.8903C124.434 29.8903 124.335 29.7413 124.385 29.5427C124.41 29.3441 124.508 29.0959 124.607 28.9718C124.731 28.8725 124.681 28.6242 124.558 28.4753C124.393 28.2601 124.393 28.1112 124.558 28.0284C124.681 27.954 124.756 27.7305 124.681 27.5319C124.607 27.3085 124.434 27.2341 124.261 27.3582C124.047 27.474 124.006 27.4326 124.138 27.2341C124.237 27.0603 124.434 26.961 124.558 27.0355C124.706 27.1099 124.879 27.0106 124.978 26.8617C125.077 26.6879 125.176 26.1418 125.176 25.6701C125.176 25.1985 125.299 24.6275 125.423 24.4289C125.596 24.1558 125.596 24.1062 125.373 24.2551C125.176 24.3544 125.027 24.3048 125.027 24.131C125.003 23.9572 125.027 23.709 125.052 23.56C125.077 23.4111 125.126 23.0884 125.151 22.8153C125.176 22.5423 125.299 22.1451 125.423 21.9465C125.596 21.6237 125.571 21.6237 125.225 21.8968C125.003 22.0458 124.854 22.294 124.928 22.443C125.003 22.5919 124.904 22.6912 124.756 22.6912C124.508 22.6912 124.508 22.7408 124.731 22.8898C124.928 23.0056 124.953 23.1877 124.805 23.4359C124.583 23.7586 124.558 23.7586 124.533 23.4359C124.533 23.2373 124.508 22.8153 124.484 22.5423C124.459 22.2444 124.508 22.0458 124.632 22.0954C124.731 22.1451 124.805 22.0954 124.805 21.9465C124.805 21.7975 124.657 21.6982 124.508 21.6734C124.261 21.6734 124.261 21.6486 124.508 21.5493C124.657 21.4996 124.756 21.2266 124.681 20.9535C124.607 20.6804 124.434 20.5067 124.311 20.5811C124.146 20.6639 124.146 20.5646 124.311 20.2832C124.434 20.035 124.484 19.7619 124.434 19.6626C124.36 19.5385 124.385 19.4144 124.508 19.3647C124.607 19.3151 124.706 19.5633 124.706 19.9109C124.731 20.2832 124.805 20.8294 124.83 21.1273C124.879 21.4003 125.003 21.5989 125.126 21.5493C125.225 21.4996 125.176 21.1769 125.052 20.8294C124.928 20.4818 124.805 20.1591 124.805 20.0846C124.805 20.0102 124.953 20.035 125.126 20.1343C125.349 20.2584 125.349 20.2088 125.151 19.9357C125.027 19.7371 124.928 19.4392 124.978 19.2903C125.027 19.1165 125.052 18.9427 125.077 18.9179C125.077 18.8682 125.126 18.6448 125.2 18.4214C125.25 18.1732 125.176 17.9249 125.052 17.8504C124.928 17.776 124.854 17.9249 124.904 18.1732C124.978 18.3966 124.805 18.7193 124.533 18.9179C124.088 19.191 124.088 19.191 124.434 18.5952C124.657 18.2228 124.706 17.9249 124.558 17.8504C124.434 17.776 124.36 17.627 124.434 17.4781C124.508 17.3291 124.681 17.2795 124.805 17.354C124.928 17.4284 125.151 17.3291 125.274 17.1802C125.423 16.965 125.39 16.8575 125.176 16.8575C125.003 16.8575 124.904 16.9319 124.953 17.0561C125.003 17.1554 124.854 17.1554 124.632 17.0561C124.36 16.9568 124.311 16.8575 124.508 16.8078C124.681 16.7582 124.731 16.6092 124.632 16.4355C124.484 16.212 124.583 16.1624 124.928 16.3113C125.349 16.4603 125.373 16.4355 125.052 16.1872C124.854 16.0134 124.657 15.6659 124.632 15.4425C124.583 15.1942 124.706 14.9212 124.854 14.8219C125.069 14.6895 125.11 14.7309 124.978 14.946C124.879 15.0949 124.928 15.2935 125.052 15.368C125.176 15.4425 125.274 15.3432 125.225 15.1942C125.2 15.0205 125.077 14.7722 125.003 14.6233C124.904 14.4743 124.879 13.953 124.953 13.4565Z" fill="#630D94"/>
<path d="M126.93 35.1034C126.856 34.7558 126.856 34.4083 126.93 34.2842V34.309C127.004 34.1849 127.177 34.1104 127.35 34.1352C127.572 34.1352 127.572 34.1849 127.35 34.2593C127.177 34.309 127.029 34.4579 127.029 34.6069C127.029 34.7558 127.177 34.7807 127.35 34.7062C127.572 34.5572 127.572 34.6069 127.35 34.88C127.152 35.1282 127.128 35.3764 127.276 35.6743C127.449 35.9474 127.424 36.146 127.276 36.2205C127.152 36.2949 127.004 36.7666 127.004 37.2879C126.955 37.983 126.93 38.0326 126.88 37.5362C126.831 37.139 126.683 36.8907 126.535 36.9652C126.411 37.0397 126.436 36.8659 126.609 36.5928C126.757 36.3198 126.979 36.0963 127.103 36.0963C127.202 36.0963 127.226 36.0219 127.152 35.9226C127.103 35.7985 127.004 35.4509 126.93 35.1034Z" fill="#630D94"/>
<path d="M124.261 37.4865C124.039 37.6106 124.039 37.5362 124.286 37.2383C124.459 37.0148 124.681 36.8163 124.756 36.8163C124.83 36.8163 124.805 36.8659 124.731 36.9404C124.632 37.0149 124.879 37.7099 125.274 38.5043C125.892 39.6959 125.942 39.9689 125.67 40.2917C125.472 40.4903 125.176 40.664 124.978 40.664C124.78 40.664 124.657 40.5151 124.706 40.3661C124.756 40.1924 124.953 40.1179 125.126 40.2172C125.349 40.3413 125.349 40.2917 125.151 40.0186C125.003 39.82 124.904 39.4725 124.953 39.249C125.003 39.0008 124.978 38.8519 124.879 38.9015C124.756 38.9512 124.657 38.827 124.607 38.6036C124.583 38.3554 124.558 37.983 124.558 37.7596C124.558 37.4617 124.434 37.3872 124.261 37.4865Z" fill="#630D94"/>
<path d="M132.563 1.11892C132.414 0.903776 132.464 0.721731 132.711 0.572784C132.909 0.448663 133.304 0.349365 133.576 0.349365C133.848 0.349365 134.539 0.647258 135.108 0.969974C136.022 1.51611 136.146 1.66506 135.923 2.08707C135.8 2.36014 135.75 2.53391 135.849 2.48426C135.973 2.43461 136.022 4.07302 135.997 6.13344C135.973 8.21869 135.948 10.1053 135.923 10.3288C135.923 10.7011 135.676 10.7756 132.835 10.7756L132.662 9.73297C132.563 9.13719 132.414 8.44211 132.316 8.16904C132.167 7.69737 132.167 7.69737 132.489 8.11939C132.785 8.49175 132.81 8.36763 132.711 7.12641C132.637 6.33203 132.489 5.53766 132.39 5.36389C132.291 5.21494 132.365 4.99152 132.513 4.8674C132.727 4.75155 132.769 4.79292 132.637 4.99152C132.538 5.16529 132.587 5.36388 132.711 5.43836C132.835 5.51283 132.958 5.41353 132.958 5.23976C132.958 5.09082 132.76 4.71845 132.513 4.47021C132.118 4.02337 132.118 3.99855 132.513 4.14749C132.909 4.29644 132.958 4.17232 132.884 2.88145C132.835 2.11189 132.686 1.31752 132.563 1.11892Z" fill="#951493"/>
<path d="M132.587 13.0098C132.439 13.1339 132.316 13.0346 132.316 12.7367C132.266 12.2899 132.414 12.2402 136.022 12.3892L135.973 14.0028C135.973 14.8964 135.948 15.7653 135.923 15.9142C135.923 16.1625 135.8 16.1625 135.355 15.9639C135.058 15.8149 134.342 15.666 132.662 15.6163L132.76 14.2014C132.81 13.2829 132.76 12.8857 132.587 13.0098Z" fill="#951493"/>
<path d="M132.859 25.3475C132.933 25.5957 133.205 25.5957 134.119 25.3227C134.787 25.1241 135.528 24.9751 135.775 25C136.047 25.0248 136.318 25.2234 136.368 25.422C136.491 25.7447 136.442 25.7447 136.022 25.422C135.577 25.0496 135.577 25.0744 135.997 25.7199C136.22 26.117 136.294 26.3653 136.17 26.2908C136.047 26.2163 135.898 26.3156 135.849 26.4646C135.8 26.6384 135.775 27.6313 135.8 28.6491L135.8 28.6492C135.824 29.6671 135.898 32.7204 135.948 35.4262C136.022 39.4725 136.121 40.3911 136.417 40.5896C136.664 40.7138 136.096 40.8131 134.861 40.8131C133.131 40.8131 132.933 40.7634 132.662 40.2421C132.513 39.9442 132.365 39.4229 132.34 39.0754C132.316 38.4548 132.316 38.4548 132.736 38.9512C133.057 39.3733 133.131 39.3733 133.106 39.0257C133.106 38.8023 133.007 38.6782 132.884 38.7278C132.785 38.7775 132.711 38.3306 132.711 37.71C132.711 37.0894 132.587 36.5433 132.464 36.4688C132.299 36.3861 132.299 36.2206 132.464 35.9723C132.587 35.7737 132.785 35.6496 132.884 35.6992C133.007 35.7489 133.082 35.6496 133.082 35.4758C133.082 35.3021 133.007 35.2028 132.884 35.2524C132.785 35.3021 132.711 34.9297 132.711 34.4084C132.711 33.9119 132.785 33.3906 132.884 33.2913C132.983 33.1672 133.082 32.8693 133.082 32.621C133.082 32.3728 133.007 32.2238 132.884 32.2735C132.785 32.3231 132.711 32.199 132.711 32.0004C132.711 31.8018 132.785 31.6777 132.884 31.7274C133.007 31.777 133.082 31.6777 133.082 31.5039C133.082 31.3053 132.983 31.2557 132.835 31.4046C132.711 31.5288 132.489 31.5536 132.39 31.4295C132.291 31.3302 132.217 31.1564 132.217 31.0074C132.217 30.8585 132.34 30.933 132.464 31.1316C132.662 31.4543 132.711 31.4295 132.711 31.0571C132.711 30.8337 132.785 30.6847 132.884 30.7344C133.007 30.784 133.082 30.6847 133.082 30.511C133.082 30.3372 133.007 30.2379 132.884 30.2875C132.785 30.3372 132.711 29.8159 132.711 29.1456C132.711 28.4505 132.785 27.8548 132.884 27.8051C133.007 27.7555 133.082 27.3086 133.082 26.837C133.082 26.3653 133.032 25.8936 132.958 25.844C132.884 25.7695 132.81 26.0177 132.785 26.3653C132.76 26.7377 132.711 27.2093 132.662 27.4576C132.612 27.681 132.538 27.9044 132.464 27.9789C132.39 28.0533 132.34 27.5072 132.34 26.7873C132.34 26.0674 132.414 25.5213 132.513 25.5709C132.637 25.6206 132.711 25.5213 132.736 25.3475C132.736 25.0992 132.76 25.0992 132.859 25.3475Z" fill="#951493"/>
<path d="M132.736 46.0262C132.736 43.7175 132.835 42.948 133.106 42.6749C133.329 42.4763 133.551 42.3025 133.65 42.3025C133.749 42.3025 133.971 42.4266 134.144 42.6004C134.366 42.8238 134.441 43.8665 134.465 46.0262C134.465 48.5334 134.391 49.1789 134.07 49.4271C133.872 49.6009 133.526 49.7002 133.329 49.6257C133.131 49.5512 133.007 49.3278 133.082 49.1292C133.156 48.9306 133.082 48.8065 132.958 48.881C132.81 48.9555 132.711 47.9377 132.736 46.0262Z" fill="#951493"/>
<path d="M146.277 33.4154C146.277 33.3161 146.227 33.0431 146.178 32.8197C146.104 32.5218 146.203 32.4473 146.499 32.5466C146.87 32.6707 146.87 32.7204 146.549 32.8941C146.227 33.0679 146.252 33.1176 146.623 33.1176C146.87 33.1176 147.364 33.614 147.759 34.2843C148.155 34.9546 148.822 36.1958 149.242 37.0894C149.662 37.9831 150.131 39.3236 150.28 40.0684C150.428 40.8131 150.477 41.9798 150.379 42.6749C150.304 43.3452 149.983 44.4126 149.687 45.0084C149.39 45.629 149.02 46.1503 148.896 46.2C148.772 46.2496 148.204 45.8773 147.661 45.4056C146.722 44.5864 146.697 44.5119 147.092 44.0899C147.372 43.8086 147.438 43.5438 147.29 43.2955C147.166 43.0969 147.142 42.8239 147.241 42.6749C147.339 42.526 147.29 42.5012 147.166 42.6005C147.018 42.6749 146.944 43.0473 146.993 43.3948C147.018 43.7424 147.018 44.0403 146.993 44.0403C146.945 44.0644 146.71 43.8066 146.447 43.5183L146.425 43.4941C146.054 43.0721 146.054 43.0225 146.376 43.2955C146.623 43.4941 146.82 43.5686 146.796 43.4197C146.796 43.2707 146.598 42.948 146.351 42.6749C146.104 42.377 146.079 42.3026 146.302 42.4763C146.623 42.7246 146.672 42.3026 146.672 38.9761C146.672 36.8412 146.573 35.029 146.425 34.8304C146.302 34.6318 146.376 34.6815 146.623 34.9794C147.043 35.4759 147.043 35.4759 146.944 34.7311C146.87 34.3339 146.82 33.9368 146.796 33.8623C146.746 33.7878 146.746 33.6637 146.771 33.5396C146.771 33.4403 146.672 33.4154 146.549 33.4899C146.425 33.5644 146.302 33.5396 146.277 33.4154Z" fill="#F22294"/>
<path d="M127.72 5.88526C128.017 5.33913 128.387 4.81782 128.56 4.74334C128.709 4.69369 128.956 4.69369 129.104 4.76817C129.277 4.84264 129.227 4.94194 129.005 5.06606C128.807 5.16536 128.709 5.38878 128.807 5.53772C128.931 5.68667 128.857 5.88526 128.684 5.95974C128.461 6.08386 128.486 6.15833 128.758 6.3321C129.079 6.50587 129.054 6.60517 128.14 7.59814L128.634 7.37472C128.956 7.2506 129.054 7.27543 128.956 7.42437C128.882 7.57332 128.733 8.02016 128.659 8.41735C128.585 8.83936 128.634 9.33585 128.758 9.53444C128.931 9.80751 128.956 9.65857 128.882 9.11243C128.807 8.66559 128.832 8.24358 128.931 8.19393C129.054 8.14428 129.129 8.69042 129.129 10.7757H128.066C127.498 10.7757 127.028 10.6764 127.028 10.5274C127.028 10.4033 127.127 10.2295 127.275 10.1551C127.399 10.0806 127.448 9.88198 127.35 9.73304C127.251 9.55927 127.152 9.23655 127.152 9.03796C127.152 8.83936 127.251 8.51664 127.399 8.31805C127.572 8.04498 127.572 7.99533 127.325 8.11946C127.127 8.24358 127.053 8.09463 127.102 7.62297C127.152 7.22578 127.448 6.45622 127.72 5.88526Z" fill="#700F94"/>
<path d="M126.831 13.0347C127.078 12.8857 127.226 12.6375 127.127 12.4885C127.053 12.3148 127.3 12.2899 127.943 12.4141C128.461 12.5134 128.931 12.6375 129.005 12.6871C129.079 12.7616 129.129 13.6305 129.129 14.6234C129.129 15.6164 129.079 16.4108 129.005 16.3611C128.931 16.3115 128.882 15.5419 128.882 14.6234C128.882 13.7049 128.832 12.9354 128.758 12.8857C128.684 12.8361 128.659 13.2581 128.684 13.7794C128.733 14.4993 128.684 14.6979 128.461 14.5738C128.239 14.4248 128.214 14.4745 128.363 14.7476C128.486 14.9462 128.61 15.4675 128.61 15.8895C128.634 16.3611 128.536 16.6094 128.387 16.5349C128.239 16.4604 128.264 16.5597 128.437 16.7583C128.61 16.9569 128.733 17.4534 128.733 17.8506C128.733 18.2726 128.733 19.2656 128.709 20.0848C128.709 20.904 128.684 22.3686 128.659 23.3616C128.659 24.4539 128.536 25.0745 128.387 24.9752C128.239 24.9007 128.363 25.0745 128.634 25.3724C128.906 25.6703 129.227 25.844 129.376 25.7447C129.499 25.6455 129.475 25.7448 129.326 25.9433C129.153 26.1419 129.079 26.3902 129.203 26.5143C129.302 26.6384 129.227 26.6633 129.054 26.5888C128.906 26.4895 128.832 26.2661 128.931 26.1171C129.054 25.9185 129.03 25.8689 128.882 25.9682C128.733 26.0675 128.634 28.7237 128.634 32.9438C128.634 36.7419 128.733 39.8698 128.857 39.9939C128.98 40.0932 129.005 40.0684 128.931 39.8946C128.832 39.7209 128.857 39.5223 129.005 39.4478C129.129 39.3733 129.203 39.5223 129.153 39.7705C129.104 39.9939 128.931 40.1677 128.783 40.1429C128.634 40.0932 128.511 40.1677 128.511 40.3167C128.511 40.4656 128.387 40.5649 128.264 40.5649C128.116 40.5649 127.844 40.1677 127.646 39.696C127.448 39.2244 127.35 38.6782 127.448 38.5293C127.58 38.3142 127.539 38.2728 127.325 38.4052C127.102 38.5293 127.028 38.2811 127.028 37.4618C127.028 36.8412 127.127 36.2951 127.275 36.2206C127.424 36.1462 127.448 35.9476 127.275 35.6745C127.127 35.3766 127.152 35.1284 127.35 34.8801C127.572 34.607 127.572 34.5574 127.325 34.7063C127.177 34.7808 127.028 34.756 127.028 34.607C127.028 34.4581 127.102 34.334 127.201 34.2843C127.325 34.2347 127.275 34.2099 127.152 34.2347C127.028 34.2595 126.905 34.4829 126.88 34.756C126.88 35.0042 126.954 35.4014 127.053 35.6C127.152 35.7986 127.078 36.0965 126.88 36.2951C126.682 36.4689 126.584 36.8412 126.658 37.164C126.781 37.6604 126.781 37.6604 126.559 37.2136C126.435 36.9157 126.435 36.5433 126.559 36.2951C126.682 36.0469 126.732 35.5752 126.658 35.2277C126.584 34.8801 126.682 34.2595 126.831 33.8623C127.004 33.4403 127.201 33.1424 127.275 33.2169C127.35 33.2665 127.399 33.1921 127.424 33.0431C127.424 32.8693 127.3 32.7452 127.127 32.7452C126.954 32.7452 126.855 32.7949 126.905 32.8693C126.954 32.9438 126.93 33.1176 126.831 33.2914C126.732 33.4403 126.658 32.8693 126.682 32.0501C126.682 31.2061 126.757 30.2628 126.855 29.9649C126.954 29.6422 127.177 29.3939 127.325 29.3939C127.498 29.3939 127.572 29.3195 127.473 29.2202C127.374 29.096 127.102 29.1953 126.88 29.3939C126.509 29.7415 126.509 29.7166 126.806 29.0712C127.004 28.6988 127.275 28.401 127.399 28.401C127.523 28.401 127.572 28.3265 127.473 28.2272C127.374 28.1031 127.102 28.2024 126.905 28.401C126.534 28.7485 126.534 28.6988 126.831 27.9789C127.004 27.5569 127.201 27.2342 127.275 27.2839C127.35 27.3335 127.399 27.2342 127.424 27.0853C127.424 26.9115 127.3 26.7874 127.127 26.7874C126.954 26.7874 126.855 26.837 126.905 26.9115C126.954 26.986 126.93 27.1597 126.831 27.3335C126.732 27.4825 126.658 26.8122 126.682 25.844C126.682 24.8511 126.584 23.9077 126.435 23.7092C126.238 23.4361 126.238 23.3864 126.46 23.5106C126.658 23.6099 126.831 23.4857 126.905 23.1878C126.979 22.9148 127.127 22.741 127.275 22.8155C127.399 22.8899 127.498 22.7907 127.448 22.5921C127.424 22.3935 127.325 22.1452 127.226 22.0211C127.102 21.9218 127.177 21.6736 127.35 21.475C127.572 21.1771 127.572 21.1522 127.325 21.2764C127.152 21.3757 127.028 21.3012 127.028 21.0778C127.028 20.8544 127.152 20.7799 127.325 20.8544C127.572 21.0033 127.572 20.9536 127.35 20.6806C127.102 20.4075 127.102 20.2586 127.35 19.9855C127.572 19.6876 127.572 19.6628 127.325 19.7869C127.177 19.8862 127.028 19.8614 127.028 19.7124C127.028 19.5635 127.177 19.4145 127.325 19.3401C127.498 19.2656 127.473 19.2408 127.275 19.2904C127.053 19.3401 126.905 19.6628 126.905 20.1344C126.905 20.5565 126.831 21.0033 126.732 21.1274C126.633 21.2267 126.584 20.9288 126.633 20.4572C126.658 19.9855 126.781 19.2904 126.855 18.9181C126.954 18.5209 127.102 18.2726 127.201 18.3223C127.325 18.3719 127.399 18.2974 127.424 18.1485C127.424 17.9747 127.3 17.8506 127.127 17.8506C126.954 17.8506 126.855 17.9003 126.905 17.9747C126.954 18.0492 126.93 18.223 126.831 18.3967C126.732 18.5457 126.658 17.8506 126.658 16.8576C126.658 15.8647 126.707 15.0703 126.781 15.1199C126.855 15.1696 126.88 15.4675 126.88 15.7902C126.855 16.0881 126.954 16.5597 127.053 16.808C127.177 17.0314 127.201 17.2796 127.078 17.3045C126.979 17.3541 127.004 17.3789 127.152 17.3541C127.275 17.3045 127.35 17.1307 127.325 16.9569C127.275 16.7583 127.177 16.386 127.127 16.1129C127.078 15.8398 127.177 15.4675 127.35 15.2689C127.523 15.0703 127.523 14.971 127.399 15.0455C127.251 15.1199 127.152 14.8965 127.152 14.4993C127.152 14.127 127.226 13.7049 127.325 13.5808C127.424 13.4815 127.448 13.3077 127.399 13.2084C127.325 13.0843 127.078 13.0843 126.831 13.1588C126.435 13.2829 126.435 13.2829 126.831 13.0347Z" fill="#700F94"/>
<path d="M130.661 2.23611C130.512 2.31058 130.76 2.03752 131.229 1.6155C131.698 1.19349 132.168 0.845947 132.291 0.845947C132.39 0.845947 132.539 0.994893 132.637 1.16866C132.712 1.31761 132.835 2.11199 132.885 2.90637C132.959 4.17241 132.909 4.29653 132.539 4.14759C132.119 3.99864 132.119 4.02346 132.514 4.4703C132.761 4.71855 132.959 5.09091 132.959 5.26468C132.959 5.41363 132.835 5.51293 132.712 5.43845C132.588 5.36398 132.539 5.16538 132.637 5.01644C132.769 4.80129 132.728 4.75992 132.514 4.89232C132.366 4.99161 132.291 5.21503 132.39 5.3888C132.489 5.53775 132.637 6.33213 132.712 7.12651C132.81 8.36773 132.786 8.49185 132.489 8.11948C132.168 7.69747 132.168 7.69747 132.316 8.16913C132.415 8.4422 132.563 9.13728 132.835 10.7757H131.921C131.402 10.7757 130.809 10.6019 130.611 10.4033C130.339 10.1303 130.315 10.0061 130.537 9.95649C130.784 9.88201 130.883 8.83939 130.908 5.98459C130.957 2.93119 130.908 2.11199 130.661 2.23611Z" fill="#871294"/>
<path d="M130.117 12.6872C129.746 12.8113 129.672 12.7865 129.821 12.563C129.919 12.4141 130.414 12.2652 130.858 12.2652C131.377 12.2652 131.723 12.3893 131.723 12.5879C131.723 12.7865 131.806 12.7616 131.97 12.5134C132.193 12.1907 132.217 12.1907 132.242 12.5134C132.267 12.712 132.242 12.9851 132.217 13.134C132.193 13.2829 132.316 13.2581 132.489 13.0844C132.786 12.8609 132.81 13.0347 132.761 14.2015C132.687 15.4923 132.613 15.6413 131.946 15.9392C131.377 16.1874 131.229 16.1874 131.229 15.9392C131.229 15.7654 131.081 15.8399 130.908 16.1129C130.611 16.5349 130.537 16.5598 130.339 16.237C130.191 15.964 130.216 15.9143 130.438 16.0633C130.611 16.1626 130.735 16.0881 130.735 15.8647C130.735 15.6661 130.611 15.542 130.488 15.6164C130.323 15.6992 130.323 15.5751 130.488 15.2441C130.611 14.971 130.809 14.7972 130.908 14.8469C131.031 14.8965 131.105 14.5738 131.105 14.127C131.105 13.6801 131.031 13.3574 130.933 13.4071C130.809 13.4567 130.636 13.3574 130.488 13.2085C130.364 13.0347 130.315 12.7865 130.438 12.6872C130.537 12.563 130.389 12.563 130.117 12.6872Z" fill="#871294"/>
<path d="M130.339 25C130.389 24.7518 130.29 24.4787 130.142 24.3794C129.994 24.2801 129.944 24.1808 130.068 24.1808C130.167 24.1808 130.76 24.4291 131.427 24.7518C132.069 25.0497 132.613 25.3724 132.662 25.4965C132.687 25.5958 132.786 25.6207 132.909 25.571C133.008 25.5214 133.082 25.9434 133.082 26.5392C133.082 27.1349 132.983 27.7059 132.885 27.83C132.786 27.9293 132.712 28.5499 132.712 29.2202C132.712 29.8656 132.786 30.3373 132.909 30.2876C133.008 30.238 133.082 30.3373 133.082 30.5111C133.082 30.6848 133.008 30.7841 132.909 30.7345C132.786 30.6848 132.712 30.8338 132.712 31.082C132.712 31.4296 132.662 31.4544 132.464 31.1317C132.341 30.9331 132.217 30.8586 132.217 31.0075C132.217 31.1565 132.291 31.3303 132.39 31.4296C132.489 31.5537 132.712 31.5289 132.835 31.4047C132.983 31.2558 133.082 31.3054 133.082 31.504C133.082 31.6778 133.008 31.7771 132.909 31.7274C132.786 31.6778 132.712 31.8019 132.712 32.0005C132.712 32.1991 132.786 32.3232 132.909 32.2736C133.008 32.2239 133.082 32.3729 133.082 32.6211C133.082 32.8694 132.983 33.1673 132.885 33.2914C132.786 33.3907 132.712 33.912 132.712 34.4333C132.712 34.9298 132.786 35.3022 132.909 35.2525C133.008 35.2029 133.082 35.3022 133.082 35.4759C133.082 35.6497 133.008 35.749 132.909 35.6993C132.786 35.6497 132.588 35.7738 132.464 35.9724C132.3 36.2207 132.3 36.3862 132.464 36.4689C132.588 36.5434 132.712 37.0895 132.712 37.7101C132.712 38.3307 132.786 38.7776 132.909 38.7279C133.008 38.6783 133.107 38.8024 133.107 39.0258C133.132 39.3733 133.057 39.3733 132.736 38.9513C132.316 38.4548 132.316 38.4548 132.341 39.0755C132.366 39.423 132.514 39.9443 132.662 40.267C132.959 40.7883 132.934 40.8132 130.364 40.8132V33.5396C130.364 29.5677 130.463 26.142 130.562 25.993C130.661 25.8193 130.611 25.6207 130.488 25.5462C130.364 25.4717 130.29 25.2235 130.339 25Z" fill="#871294"/>
<path d="M32.6901 21.8224C33.0113 21.4748 33.7031 21.028 34.2467 20.8046C34.8645 20.5812 35.6799 20.5067 36.4705 20.5812C37.1624 20.6556 37.9037 20.9039 38.1507 21.1521C38.3978 21.3755 38.5955 21.7479 38.5955 21.9465C38.5955 22.1451 38.3484 22.5423 38.0519 22.8153C37.706 23.1381 37.0883 23.3367 36.2482 23.4111C35.5563 23.4608 34.3456 23.3615 33.5796 23.2125C32.7889 23.0636 32.1465 22.8402 32.1465 22.6912C32.1465 22.5423 32.3936 22.1699 32.6901 21.8224Z" fill="#060506"/>
<path d="M48.3555 22.443C48.6273 21.9713 49.2203 21.3259 49.6898 21.0032C50.2828 20.606 50.8758 20.457 51.8395 20.457C52.5807 20.457 53.5444 20.6556 54.0386 20.879C54.6069 21.1521 55.1257 21.6734 55.3975 22.2444C55.7188 22.865 55.867 23.7338 55.867 24.7268C55.867 25.7198 55.7188 26.6135 55.4222 27.1596C55.1999 27.6313 54.6069 28.2271 54.1374 28.5001C53.5608 28.8311 52.8196 28.9966 51.9136 28.9966C51.0488 28.9718 50.2581 28.798 49.7145 28.5001C49.245 28.2271 48.652 27.5816 48.3802 27.0355C48.059 26.4149 47.886 25.546 47.886 24.6772C47.886 23.7835 48.059 23.0139 48.3555 22.443Z" fill="#060506"/>
<path d="M104.494 22.443C104.716 21.9713 105.285 21.3259 105.754 21.028C106.372 20.606 106.965 20.457 107.929 20.457C108.67 20.457 109.634 20.6556 110.128 20.879C110.622 21.1273 111.264 21.7231 111.561 22.1947C111.956 22.8402 112.08 23.4608 112.08 24.6772C112.08 25.8687 111.956 26.5142 111.561 27.1596C111.289 27.6313 110.671 28.2519 110.202 28.5001C109.658 28.8228 108.892 28.9966 108.003 28.9966C107.113 28.9966 106.372 28.8228 105.828 28.5001C105.384 28.2519 104.791 27.5816 104.544 27.0355C104.247 26.4149 104.049 25.5212 104.049 24.6772C104.049 23.858 104.222 22.9643 104.494 22.443Z" fill="#060506"/>
<path d="M130.834 9.28622C130.784 9.21175 130.686 8.36772 130.661 7.37474C130.636 6.40659 130.661 5.66186 130.735 5.73634C130.809 5.78598 130.883 6.65484 130.908 7.62299C130.933 8.61596 130.908 9.36069 130.834 9.28622Z" fill="#7B1195"/>
<path d="M130.76 26.1668C130.883 25.9434 130.834 25.6703 130.661 25.4717C130.439 25.2235 130.439 25.1738 130.661 25.1738C130.834 25.1738 131.007 25.3228 131.056 25.4717C131.106 25.6455 131.13 29.0712 131.13 33.068C131.106 37.7101 131.007 40.3167 130.859 40.3167C130.71 40.3167 130.612 37.8342 130.587 33.4403C130.587 29.6422 130.661 26.3654 130.76 26.1668Z" fill="#7B1195"/>
<path d="M147.116 38.9265C146.993 38.9762 146.894 38.4797 146.894 37.8094C146.869 37.1392 146.919 36.593 147.018 36.593C147.092 36.593 147.116 36.7916 147.042 37.0399C146.968 37.3626 147.018 37.4122 147.289 37.2385C147.586 37.0399 147.611 37.0647 147.363 37.3626C147.116 37.6356 147.116 37.7846 147.363 38.0577C147.611 38.3307 147.586 38.3555 147.289 38.1818C147.018 38.008 146.968 38.0577 147.116 38.4052C147.215 38.6286 147.215 38.8769 147.116 38.9265Z" fill="#E01F94"/>
<path d="M130.364 6.80362C130.413 6.05889 130.438 5.36381 130.463 5.26451V5.23969C130.487 5.14039 130.512 5.06592 130.561 5.06592C130.586 5.06592 130.611 6.03407 130.636 7.22564C130.636 8.44203 130.586 9.13711 130.487 8.78957C130.388 8.44203 130.339 7.54835 130.364 6.80362Z" fill="#871294"/>
<path d="M132.588 26.8617C132.588 26.4397 132.612 25.9929 132.662 25.8687C132.711 25.7694 132.835 25.7446 132.933 25.7943C133.032 25.8439 133.106 26.3156 133.106 26.7872C133.082 27.2837 132.958 27.6809 132.835 27.6809C132.711 27.6809 132.588 27.3085 132.588 26.8617Z" fill="#871294"/>
</svg>
